<?xml version="1.0" standalone="no"?>
<!DOCTYPE svg PUBLIC "-//W3C//DTD SVG 20010904//EN"
 "http://www.w3.org/TR/2001/REC-SVG-20010904/DTD/svg10.dtd">
<svg version="1.0" xmlns="http://www.w3.org/2000/svg"
 width="570.000000pt" height="390.000000pt" viewBox="0 0 570.000000 390.000000"
 preserveAspectRatio="xMidYMid meet">

<g transform="translate(0.000000,390.000000) scale(0.100000,-0.100000)"
fill="#000000" stroke="none">
<path d="M5 3788 c4 -258 4 -256 20 -228 17 29 20 70 5 70 -5 0 -10 7 -10 15
0 8 5 15 10 15 6 0 15 11 20 25 5 14 14 25 20 25 5 0 10 9 10 19 0 11 5 23 10
26 6 4 8 -8 5 -31 -4 -34 -3 -35 13 -22 9 9 37 18 61 22 25 4 50 15 60 27 16
20 18 20 62 5 26 -9 57 -16 70 -16 13 0 62 -2 108 -4 63 -3 88 -1 98 10 16 16
49 19 58 4 3 -5 13 -6 22 -3 14 6 12 9 -12 19 -17 7 -26 13 -21 14 5 0 3 7 -4
15 -10 12 -10 15 4 15 9 0 18 -1 20 -2 2 -2 12 4 22 14 11 9 30 18 44 21 25 4
24 4 -2 6 -16 0 -28 6 -28 12 0 15 41 0 63 -22 19 -21 15 -39 -9 -39 -8 0 -14
-3 -15 -7 -5 -48 -3 -63 8 -63 11 0 18 27 14 53 -1 10 17 9 23 -1 3 -5 19 -7
35 -4 17 2 28 8 25 14 -3 5 -14 8 -23 6 -10 -2 -19 1 -20 7 -3 14 56 27 101
23 31 -3 37 -1 33 11 -4 11 -1 10 14 -3 15 -13 20 -14 24 -4 4 8 8 9 14 3 4
-5 30 -11 57 -13 47 -2 48 -2 44 23 -4 17 -1 25 9 25 11 0 13 -7 9 -25 -6 -23
-3 -25 24 -25 19 0 29 4 25 10 -4 6 -12 7 -18 4 -9 -5 -9 -4 -1 5 11 12 44 5
44 -10 0 -14 60 -10 76 5 12 12 10 16 -14 24 -24 9 -21 11 28 12 155 6 506 -2
516 -11 8 -7 14 -6 19 1 9 15 172 13 178 -2 3 -10 7 -10 18 -1 8 6 37 11 64
11 49 0 49 -1 19 -12 -17 -6 -29 -16 -27 -22 5 -14 -48 -34 -89 -34 -17 0 -46
-7 -66 -16 -93 -40 -121 -63 -122 -98 0 -16 -2 -17 -17 -5 -14 12 -16 12 -11
-1 8 -23 -21 -73 -38 -66 -11 4 -13 0 -8 -21 4 -16 3 -24 -3 -20 -6 4 -7 -9
-2 -36 10 -60 28 -115 39 -122 6 -4 10 -11 10 -18 0 -18 -49 53 -61 90 -12 38
-24 42 -32 12 -4 -15 -11 -19 -25 -15 -18 6 -76 -17 -87 -35 -4 -5 -14 -9 -24
-9 -17 0 -47 -47 -37 -58 3 -3 8 3 12 12 3 9 10 14 14 11 13 -8 40 6 33 18 -3
5 -1 7 5 3 6 -3 23 5 38 19 15 14 38 25 53 24 14 0 20 -3 14 -6 -9 -3 -10 -10
-3 -24 9 -15 7 -19 -5 -19 -10 0 -13 5 -9 13 5 8 2 8 -9 -2 -18 -15 -23 -26
-7 -16 6 4 10 -5 10 -19 0 -20 -5 -26 -22 -26 -12 0 -19 -3 -15 -6 6 -7 -17
-34 -29 -34 -3 0 -35 -21 -71 -46 -62 -45 -90 -52 -62 -17 8 10 1 7 -18 -7
-18 -13 -33 -29 -33 -34 0 -6 4 -5 9 3 10 15 41 8 41 -9 0 -6 -11 -15 -24 -22
-31 -14 -36 -27 -27 -69 4 -19 6 -53 6 -75 l-2 -41 35 20 c19 12 46 31 60 44
14 13 29 23 33 23 16 0 9 -41 -16 -90 l-25 -50 27 -6 c16 -3 34 -8 42 -10 8
-3 24 4 35 15 12 10 48 37 81 60 53 36 60 39 69 23 5 -9 21 -27 34 -39 24 -20
24 -23 9 -46 -11 -17 -12 -28 -5 -35 7 -7 5 -18 -6 -35 -16 -24 -16 -25 48
-82 36 -32 76 -79 90 -105 31 -56 56 -157 56 -225 0 -27 4 -45 8 -39 4 6 22
10 40 9 18 -1 35 2 38 6 7 12 -33 30 -52 22 -16 -6 -17 1 -10 88 20 251 54
529 68 544 5 6 15 5 28 -3 15 -9 22 -9 34 3 8 8 20 15 26 15 6 0 9 4 5 9 -7
12 125 15 698 19 316 1 437 -1 437 -9 0 -8 5 -7 15 1 12 10 15 10 15 0 0 -10
3 -10 14 -1 12 10 19 8 35 -8 11 -11 28 -24 39 -30 17 -9 20 -7 25 19 l6 29
72 -2 c69 -2 73 -4 82 -30 5 -16 16 -27 27 -27 29 0 33 17 8 39 -12 12 -17 21
-10 21 6 0 14 -4 17 -10 3 -5 24 -10 46 -10 22 0 38 4 35 8 -3 5 32 9 77 10
45 1 91 3 102 4 11 2 20 -3 20 -11 0 -8 6 -16 13 -19 7 -2 10 2 6 12 -7 18 4
20 25 7 12 -8 12 -12 2 -25 -11 -13 -11 -16 3 -16 9 0 16 -8 16 -20 0 -11 4
-20 9 -20 7 0 17 -39 25 -105 1 -11 5 -27 9 -35 3 -8 7 -34 9 -57 3 -37 1 -42
-14 -37 -9 3 -30 -2 -45 -10 l-28 -16 45 3 45 2 13 -48 c6 -27 9 -53 6 -58 -3
-6 0 -17 8 -26 11 -14 10 -15 -10 -9 -13 5 -22 3 -22 -3 0 -6 9 -11 20 -11 12
0 20 -7 20 -17 0 -9 5 -31 12 -49 13 -36 3 -79 -12 -54 -8 12 -10 11 -10 -6 0
-11 -3 -24 -7 -28 -4 -3 -8 -16 -10 -27 -3 -18 1 -21 22 -17 14 3 25 2 25 -2
0 -11 -27 -20 -56 -20 -27 0 -96 -49 -88 -62 8 -12 54 -10 54 3 0 10 42 9 106
-2 7 -1 16 -17 22 -36 8 -26 7 -33 -3 -33 -8 0 -17 -5 -21 -12 -5 -8 0 -9 14
-6 26 7 27 0 6 -30 -16 -24 -12 -39 19 -61 10 -7 16 -19 13 -27 -3 -7 1 -17 8
-21 17 -10 29 -60 16 -68 -5 -3 -7 -12 -4 -20 4 -8 10 -13 14 -10 10 6 20 -47
13 -74 -3 -11 -1 -21 4 -21 5 0 9 -19 9 -42 -1 -36 2 -43 17 -41 16 1 18 -5
15 -31 -3 -30 -2 -32 24 -28 15 2 26 8 23 12 -3 5 13 6 35 3 34 -5 40 -3 40
12 0 13 3 15 13 7 6 -5 45 -15 85 -21 136 -21 276 -86 390 -183 31 -27 64 -51
74 -54 9 -3 19 -16 22 -27 6 -22 7 -22 20 3 l14 25 11 -27 c6 -15 8 -36 4 -45
-3 -10 16 5 43 33 44 46 81 66 162 90 7 2 10 8 7 14 -3 5 0 7 8 4 17 -6 77 42
73 59 -1 7 -1 9 1 5 8 -14 33 5 71 56 93 123 123 226 98 341 -3 11 -5 22 -6
25 0 3 -5 -3 -11 -13 -6 -9 -16 -14 -22 -11 -7 4 -9 3 -4 -1 24 -28 -134 -102
-231 -109 -33 -2 -66 -7 -73 -12 -8 -5 -10 -3 -4 6 6 10 4 11 -11 5 -10 -4
-37 -6 -59 -5 -22 1 -56 2 -75 2 -75 -2 -397 65 -425 88 -5 5 -33 17 -62 29
-63 24 -181 99 -208 132 -11 13 -13 19 -5 13 8 -6 43 -31 77 -56 62 -46 214
-114 313 -141 52 -15 181 -33 244 -36 25 -1 27 1 15 16 -12 15 -12 16 4 10 48
-18 67 -19 67 -4 0 18 -33 33 -38 18 -2 -6 -8 -11 -13 -11 -17 0 0 18 32 34
17 9 47 18 68 22 20 4 42 12 50 18 11 9 9 12 -10 18 -13 4 4 4 39 1 50 -5 66
-2 81 11 17 16 19 16 25 0 3 -9 1 -24 -6 -32 -10 -12 -10 -14 0 -8 7 4 12 1
12 -8 0 -11 10 -15 35 -14 41 1 59 18 21 18 -16 0 -26 6 -26 14 0 8 -6 16 -12
19 -10 3 -10 9 -2 23 10 18 7 19 -42 19 -30 0 -54 2 -54 3 0 16 49 40 71 35
27 -5 54 17 31 25 -18 6 -14 20 6 25 10 3 6 5 -10 6 -49 2 -26 31 24 31 13 0
18 -5 15 -14 -4 -10 -1 -13 8 -10 17 7 17 -33 1 -56 -6 -8 -7 -12 -2 -8 9 8
24 -6 44 -40 17 -30 16 -30 -23 -38 -19 -3 -35 -11 -35 -16 0 -6 9 -7 23 -3
12 4 46 10 76 12 l53 5 25 55 c23 51 25 64 20 142 -6 77 -65 313 -83 330 -4 3
-3 -4 0 -16 6 -18 4 -22 -8 -17 -18 7 -22 40 -6 46 14 4 -44 123 -76 154 -18
19 -22 29 -14 34 8 5 7 9 -4 13 -9 4 -16 15 -16 25 0 21 -29 52 -49 52 -6 0
-11 6 -10 13 4 30 -2 57 -12 57 -6 0 -33 25 -61 55 -27 30 -56 55 -63 55 -8 0
-17 9 -20 20 -3 11 -13 20 -21 20 -8 0 -13 4 -10 9 8 12 -76 20 -92 8 -8 -6
-12 -6 -12 2 0 14 -27 15 -35 1 -4 -6 -1 -9 6 -8 7 2 15 -5 17 -14 2 -10 0
-18 -5 -18 -20 1 -35 20 -35 44 0 14 -4 26 -9 26 -5 0 -9 7 -9 15 0 8 -5 15
-11 15 -7 0 -9 -10 -5 -26 5 -17 3 -25 -4 -22 -6 2 -11 8 -11 13 0 6 -9 13
-20 17 -12 5 -17 13 -13 19 4 7 3 9 -4 5 -6 -3 -28 3 -50 14 -21 11 -56 21
-79 23 -26 1 -40 7 -40 16 0 10 11 12 46 7 l46 -6 -29 23 c-62 47 -268 154
-316 163 -24 5 -30 3 -30 -10 0 -9 -7 -28 -16 -41 -14 -22 -21 -41 -23 -70 -1
-5 -5 -4 -9 3 -6 9 -14 6 -32 -13 -16 -17 -19 -25 -9 -25 12 0 12 -2 -1 -9 -8
-6 -18 -7 -22 -5 -4 3 -8 -1 -8 -9 0 -17 -47 -40 -62 -31 -6 4 -8 3 -5 -3 8
-12 -49 -31 -93 -31 l-35 1 28 10 c15 6 27 15 27 20 0 4 4 5 10 2 10 -6 87 29
83 39 -6 14 -2 20 5 8 6 -9 20 -2 50 24 57 48 74 86 77 164 2 36 4 70 5 75 7
32 -44 95 -70 87 -11 -4 -11 0 3 15 17 19 16 20 -9 32 -15 6 -29 9 -32 6 -3
-2 -10 -1 -16 4 -16 13 -156 31 -239 30 l-72 0 40 -17 c41 -18 87 -45 117 -70
17 -14 16 -16 -7 -38 -28 -26 -34 -57 -10 -48 8 4 16 10 16 15 1 5 2 15 3 21
2 21 35 21 42 1 3 -10 10 -26 15 -36 6 -10 7 -32 4 -48 l-6 -28 -22 19 c-23
22 -33 25 -42 10 -4 -6 -11 -8 -16 -4 -14 8 -49 -25 -43 -41 3 -7 -2 -15 -12
-19 -13 -5 -14 -9 -4 -21 10 -12 9 -16 -3 -21 -9 -3 -21 -3 -26 1 -6 3 -25 -4
-42 -17 -27 -20 -41 -23 -122 -22 -51 1 -121 4 -157 6 -36 2 -77 1 -92 -3 -20
-5 -28 -3 -33 9 -3 8 0 19 7 23 34 21 -30 15 -116 -12 -23 -7 -27 -6 -18 3 29
29 8 58 -43 58 -13 0 -25 6 -27 12 -3 9 -12 8 -31 -5 -14 -9 -38 -17 -52 -17
-16 0 -25 -6 -25 -15 0 -12 -13 -15 -56 -15 -35 0 -53 4 -49 10 4 6 10 8 14 6
4 -3 13 -1 21 5 12 7 11 9 -6 9 -11 0 -26 6 -33 13 -10 10 -11 9 -6 -5 4 -10
4 -18 0 -18 -11 0 -35 27 -29 33 8 8 -6 47 -17 47 -5 0 -9 -7 -9 -15 0 -8 -4
-15 -10 -15 -5 0 -10 -8 -10 -18 0 -30 -46 -71 -72 -65 l-23 6 25 -26 c14 -14
31 -32 38 -41 21 -26 -8 -20 -73 14 -39 21 -55 25 -51 15 7 -19 -8 -19 -28 0
-11 11 -13 22 -7 38 9 23 28 26 84 14 19 -4 27 -2 27 9 0 8 5 14 10 14 20 0 9
20 -19 35 -23 11 -30 12 -34 2 -2 -6 -6 0 -9 15 -4 24 -3 26 13 18 31 -17 44
-11 21 10 -12 12 -22 26 -22 32 0 6 -7 16 -15 22 -18 14 -29 69 -12 63 7 -2
11 -11 9 -19 -1 -9 10 -23 24 -33 21 -13 24 -19 13 -26 -19 -11 -5 -22 20 -14
14 4 18 11 14 23 -6 15 -5 15 11 3 13 -11 20 -11 28 -3 20 20 25 14 22 -24 -3
-28 0 -35 13 -32 12 2 20 22 29 69 14 75 40 133 84 182 16 19 27 37 23 41 -3
3 -1 6 5 6 7 0 12 5 12 11 0 6 -7 8 -16 5 -8 -3 -12 -2 -9 4 4 6 -532 10
-1523 10 l-1529 0 2 -112z m975 82 c0 -5 -5 -10 -11 -10 -5 0 -7 5 -4 10 3 6
8 10 11 10 2 0 4 -4 4 -10z m1728 -9 c47 -1 82 -5 82 -11 0 -5 -7 -10 -15 -10
-27 0 -89 -35 -117 -65 -26 -29 -29 -61 -8 -90 4 -5 10 -22 12 -37 5 -29 -2
-33 -37 -19 -20 8 -45 -3 -45 -20 0 -14 28 -11 33 4 3 7 22 -6 51 -35 26 -27
53 -48 61 -48 18 0 19 -5 3 -29 -15 -25 -33 -16 -92 47 -24 26 -48 44 -51 40
-9 -9 13 -76 27 -85 8 -4 9 0 5 11 -4 11 -3 15 4 11 6 -4 8 -13 5 -21 -5 -14
41 -75 79 -104 10 -8 49 -32 85 -52 80 -46 71 -50 -12 -6 -114 61 -194 153
-211 245 -4 18 0 53 8 80 19 61 19 61 -5 30 -16 -20 -22 -45 -24 -104 -6 -123
-29 -177 -103 -240 -35 -29 -75 -55 -90 -59 -16 -4 -36 -13 -45 -21 -9 -8 -23
-13 -30 -10 -7 2 -31 -3 -52 -11 -30 -12 -41 -13 -44 -4 -2 8 -34 12 -95 12
-93 0 -167 13 -167 30 0 5 -9 11 -20 15 -11 3 -19 9 -18 13 3 13 -14 57 -26
64 -6 4 -8 10 -4 13 9 9 128 24 144 18 8 -3 14 1 14 11 0 9 -6 16 -14 16 -22
0 -26 27 -7 44 22 20 66 18 109 -6 27 -15 32 -15 32 -3 0 18 41 20 58 3 21
-21 22 -2 1 21 -20 22 -20 23 -3 36 11 7 16 17 11 21 -4 4 -7 2 -7 -4 0 -7 -7
-12 -15 -12 -10 0 -14 9 -13 25 1 13 4 22 6 20 3 -2 17 2 32 10 27 14 28 13
26 -9 0 -13 -4 -22 -7 -20 -4 2 -9 -7 -11 -21 -6 -29 18 -43 25 -14 3 10 13
19 24 19 15 0 16 -2 3 -11 -12 -8 -10 -10 10 -5 15 3 30 -1 40 -12 15 -16 15
-18 -7 -35 -12 -10 -27 -15 -33 -12 -5 3 -10 2 -10 -3 0 -6 11 -13 25 -16 14
-4 25 -14 26 -24 0 -10 3 -12 6 -4 2 6 11 12 19 12 13 0 19 -24 15 -57 -2 -19
15 -24 44 -13 97 37 163 168 135 271 -11 40 -69 109 -92 109 -5 0 -8 7 -8 15
0 8 -3 14 -7 13 -18 -5 -113 13 -118 22 -4 6 -10 8 -15 5 -5 -3 -11 -1 -14 4
-4 5 -35 8 -71 7 -35 -1 -80 3 -100 9 -19 7 -35 9 -35 4 0 -5 -5 -9 -11 -9 -8
0 -7 5 1 15 7 9 21 13 31 10 13 -5 19 -1 19 10 0 14 26 15 258 11 141 -2 294
-5 340 -5z m-2508 -25 c0 -2 -7 -7 -16 -10 -8 -3 -12 -2 -9 4 6 10 25 14 25 6z
m-46 -38 c-3 -4 -14 -8 -25 -8 -11 0 -18 4 -14 9 3 6 14 9 25 8 10 -1 16 -5
14 -9z m356 -17 c0 -16 -13 -19 -26 -6 -19 19 -17 24 6 18 11 -3 20 -9 20 -12z
m2304 -67 c3 -8 2 -12 -4 -9 -6 3 -10 10 -10 16 0 14 7 11 14 -7z m-69 -15
c11 -17 -1 -21 -15 -4 -8 9 -8 15 -2 15 6 0 14 -5 17 -11z m125 -43 c23 -26
23 -28 4 -18 -12 6 -24 9 -26 6 -3 -2 -13 7 -23 22 -9 15 -12 23 -6 20 6 -4
11 -2 11 5 0 8 3 9 8 4 4 -6 18 -23 32 -39z m1355 -26 c-3 -5 -2 -10 2 -10 12
0 9 -41 -5 -67 -8 -14 -18 -20 -28 -16 -13 5 -13 8 2 24 10 11 17 33 17 49 0
17 4 30 9 30 5 0 6 -4 3 -10z m-2144 -25 c5 4 6 -1 3 -9 -3 -9 -10 -16 -14
-16 -14 0 -22 19 -14 32 6 9 9 9 12 0 2 -7 8 -10 13 -7z m37 -27 c-2 -6 -10
-14 -16 -16 -7 -2 -10 2 -6 12 7 18 28 22 22 4z m-66 -22 c13 -18 9 -26 -12
-26 -11 0 -20 7 -20 15 0 9 -6 12 -17 9 -13 -4 -14 -3 -5 3 17 13 45 12 54 -1z
m85 -8 c-3 -8 -6 -5 -6 6 -1 11 2 17 5 13 3 -3 4 -12 1 -19z m216 10 c-6 -7
-13 -20 -15 -28 -5 -12 -7 -12 -13 4 -5 11 -3 21 6 27 21 13 33 11 22 -3z
m-488 -37 c-4 -14 -1 -18 11 -17 9 0 21 -8 28 -19 6 -11 17 -25 25 -31 8 -6
11 -17 8 -25 -4 -11 -6 -10 -6 2 -1 18 -31 35 -31 19 0 -6 -4 -10 -10 -10 -5
0 -10 7 -10 16 0 11 -5 14 -16 10 -21 -8 -54 2 -54 16 0 6 6 6 15 -2 13 -11
15 -7 15 24 0 26 4 36 16 36 11 0 13 -6 9 -19z m2267 -23 c-7 -7 -12 -8 -12
-2 0 6 3 14 7 17 3 4 9 5 12 2 2 -3 -1 -11 -7 -17z m88 -5 c0 -13 -14 -28 -27
-30 -16 -4 -17 9 -1 25 13 13 28 16 28 5z m-1529 -22 c13 -11 21 -22 17 -26
-12 -12 -46 5 -51 25 -6 25 4 25 34 1z m1475 -6 c-3 -9 -10 -14 -15 -10 -5 3
-12 1 -16 -5 -3 -5 -14 -10 -23 -10 -19 0 -6 16 30 34 27 15 33 13 24 -9z
m-1176 -17 c0 -14 -50 -20 -65 -8 -26 22 -8 38 30 26 19 -6 35 -14 35 -18z
m1208 -15 c-2 -10 -12 -19 -23 -20 -11 -2 -14 0 -7 3 6 3 12 12 12 20 0 8 5
14 11 14 6 0 9 -8 7 -17z m-1373 -63 c3 -5 -1 -10 -9 -10 -8 0 -18 5 -21 10
-3 6 1 10 9 10 8 0 18 -4 21 -10z m1638 -49 c-3 -12 -11 -17 -22 -14 -20 5
-46 -21 -36 -37 3 -6 10 -8 15 -5 11 7 33 -22 25 -35 -5 -8 -10 -8 -20 0 -10
9 -15 4 -20 -19 -5 -23 -14 -32 -43 -42 -20 -6 -41 -15 -46 -20 -13 -12 -29
-12 -22 0 3 5 -1 22 -9 37 -8 16 -15 25 -15 19 0 -5 -5 -2 -11 8 -10 16 -49
24 -62 11 -3 -4 2 -18 13 -32 11 -13 17 -28 15 -32 -7 -12 13 -23 26 -14 8 4
7 9 -2 15 -12 8 -11 11 1 19 11 7 17 5 22 -8 9 -23 10 -42 1 -40 -10 3 -93
-44 -93 -52 0 -4 -13 -5 -29 -2 -28 4 -29 2 -25 -27 6 -39 -8 -40 -42 -2 -14
16 -32 27 -39 25 -15 -6 -35 -77 -35 -123 0 -16 -5 -33 -12 -37 -24 -15 1 114
36 184 72 143 221 232 403 241 26 1 30 -2 26 -18z m-1008 -81 c4 -6 -5 -10
-20 -10 -15 0 -24 4 -20 10 3 6 12 10 20 10 8 0 17 -4 20 -10z m1435 -84 c0
-3 -4 -8 -10 -11 -5 -3 -10 -1 -10 4 0 6 5 11 10 11 6 0 10 -2 10 -4z m-1515
-16 c4 -6 -5 -10 -19 -10 -14 0 -26 5 -26 10 0 6 9 10 19 10 11 0 23 -4 26
-10z m-1301 -11 c-3 -5 -11 -9 -19 -9 -8 0 -16 4 -19 9 -3 5 5 9 19 9 14 0 22
-4 19 -9z m2716 -157 c0 -5 -13 -22 -30 -38 -16 -16 -30 -39 -30 -51 0 -13 -6
-23 -12 -23 -22 1 -46 25 -45 46 2 23 35 38 53 24 9 -9 16 -6 25 12 7 13 12
26 11 31 -1 4 5 7 13 7 8 0 15 -4 15 -8z m-2919 -16 c-6 -7 -8 -22 -5 -32 10
-26 55 -74 71 -74 9 0 13 -15 13 -50 0 -53 -7 -61 -29 -31 -13 18 -14 18 -46
0 -32 -19 -32 -19 -51 2 -10 12 -20 31 -21 43 -1 11 -4 40 -7 63 -4 34 -2 41
9 36 10 -3 15 1 15 15 0 24 16 38 23 20 3 -9 7 -7 12 5 4 9 12 17 17 17 7 0 6
-5 -1 -14z m-91 -58 c0 -10 -4 -18 -10 -18 -5 0 -9 10 -7 23 1 13 -3 21 -10
20 -14 -3 -17 9 -6 20 8 9 32 -24 33 -45z m3300 17 c-29 -16 -22 -17 38 -6 43
9 51 4 30 -17 -9 -9 -7 -12 9 -12 11 0 26 -6 32 -14 9 -11 6 -15 -14 -20 -21
-5 -24 -10 -15 -26 6 -11 6 -21 1 -25 -5 -3 -13 4 -16 16 -6 17 -9 19 -16 8
-16 -25 -9 -61 15 -84 13 -12 31 -45 41 -74 17 -53 17 -53 -5 -83 -13 -17 -18
-28 -11 -24 6 4 11 1 11 -6 0 -10 3 -9 10 2 5 8 12 11 17 7 4 -5 -2 -26 -15
-47 -23 -41 -29 -85 -12 -95 15 -9 12 -28 -3 -22 -7 3 -23 -5 -35 -18 -12 -12
-33 -25 -46 -27 -25 -5 -25 -5 -11 30 8 19 15 51 14 71 0 27 -2 31 -8 17 -10
-27 -21 1 -14 37 4 20 1 27 -11 27 -9 0 -16 5 -16 12 0 6 3 8 6 5 4 -4 20 14
36 38 19 29 37 45 50 45 16 0 18 -3 9 -13 -12 -15 -4 -30 10 -21 13 8 11 44
-2 44 -6 0 -8 7 -5 16 8 21 -19 64 -39 64 -19 0 -19 -19 0 -26 8 -4 12 -10 9
-16 -3 -5 -12 -7 -20 -4 -8 3 -14 -1 -14 -9 0 -8 -9 -15 -20 -15 -10 0 -24 -8
-29 -17 -6 -10 -11 -14 -11 -9 0 5 11 24 25 42 23 30 23 34 9 42 -10 5 -14 15
-10 21 6 9 11 9 22 0 11 -9 14 -8 14 9 0 23 -37 50 -82 59 -26 5 -30 4 -25
-10 4 -10 -1 -22 -14 -30 -18 -13 -18 -15 -3 -21 10 -4 14 -12 10 -22 -4 -9
-1 -23 6 -31 9 -11 9 -16 -3 -24 -24 -15 -51 -10 -56 11 -3 11 -9 20 -14 20
-5 0 -14 11 -21 24 -9 22 -13 23 -25 10 -8 -8 -20 -14 -27 -14 -7 0 -26 -6
-42 -14 -16 -8 -40 -17 -52 -21 -23 -7 -23 -6 -8 17 9 14 34 31 56 38 44 14
58 50 20 50 -11 0 -20 4 -20 9 0 15 -32 22 -46 10 -20 -16 -17 -1 4 25 18 23
29 26 50 13 7 -5 12 -5 11 0 -7 40 17 55 51 33 13 -9 13 -12 -2 -21 -20 -11
-24 -44 -6 -55 7 -5 9 -1 6 12 -10 39 136 122 217 123 l30 0 -25 -14z m-1073
-77 c-2 -13 -4 -5 -4 17 -1 22 1 32 4 23 2 -10 2 -28 0 -40z m1183 -8 c0 -5
-5 -10 -11 -10 -5 0 -7 5 -4 10 3 6 8 10 11 10 2 0 4 -4 4 -10z m-1160 -83 c0
-12 7 -35 15 -51 17 -33 19 -39 6 -32 -5 4 -7 -13 -5 -36 4 -40 3 -39 -10 12
-21 85 -28 142 -16 135 5 -3 10 -16 10 -28z m300 -152 c25 -41 27 -70 1 -32
-10 15 -28 35 -40 43 -12 9 -19 19 -16 24 9 15 34 0 55 -35z m675 -3 c-8 -15
-28 -41 -45 -57 -36 -35 -37 -39 -5 -53 39 -18 31 -35 -14 -29 -57 7 -65 -2
-69 -85 -2 -40 -8 -78 -14 -85 -13 -16 -48 -11 -63 10 -11 15 -13 14 -23 -8
-7 -16 -17 -23 -27 -19 -8 3 -15 2 -15 -3 0 -5 -9 -9 -20 -10 -15 -1 -20 4
-20 22 0 13 4 26 10 30 5 3 7 11 4 18 -2 7 14 30 36 52 49 48 53 67 6 32 l-34
-26 -4 23 c-7 37 14 56 72 63 44 5 66 16 130 64 42 32 83 65 90 74 19 22 20
18 5 -13z m-405 -36 c0 -2 -7 -7 -16 -10 -8 -3 -12 -2 -9 4 6 10 25 14 25 6z
m-469 -23 c0 -11 3 -13 6 -5 2 6 19 12 36 12 35 -1 23 -12 -25 -24 -22 -5 -28
-3 -28 11 0 13 -3 14 -12 5 -16 -16 -28 -15 -28 3 0 22 50 20 51 -2z m295 -24
c16 -18 15 -18 -17 -9 -19 6 -35 10 -35 10 -1 0 -4 6 -7 13 -8 20 38 9 59 -14z
m-38 -91 c2 -13 -1 -16 -12 -12 -12 5 -15 2 -10 -10 5 -12 2 -15 -10 -10 -9 3
-16 1 -16 -5 0 -6 -4 -11 -10 -11 -5 0 -9 5 -7 11 1 6 -4 14 -10 16 -8 3 -13
-4 -13 -19 0 -32 -15 -52 -30 -43 -10 6 -9 11 3 20 11 7 13 16 6 26 -7 12 -9
12 -9 -1 -1 -15 -45 -55 -73 -65 -11 -5 -14 0 -12 20 2 14 8 32 14 39 6 7 8
15 6 18 -12 12 49 40 76 36 16 -3 29 -1 29 4 0 5 17 8 37 6 27 -2 39 -8 41
-20z m621 -40 c11 -29 1 -48 -36 -69 -20 -12 -35 -14 -53 -7 l-24 9 29 24 c17
13 26 24 21 25 -10 0 36 39 47 40 4 0 11 -10 16 -22z m-909 -148 c0 -5 -2 -10
-4 -10 -3 0 -8 5 -11 10 -3 6 -1 10 4 10 6 0 11 -4 11 -10z m1056 -497 c0 -10
9 -20 24 -24 20 -6 17 -7 -17 -8 -36 -1 -43 -4 -43 -21 0 -11 5 -20 12 -20 9
0 9 -3 0 -12 -19 -19 -25 -2 -18 46 5 30 13 46 24 49 9 3 18 5 18 6 1 0 1 -7
0 -16z"/>
<path d="M2241 3512 c-1 -9 -8 -11 -21 -7 -12 4 -20 2 -20 -5 0 -6 5 -8 10 -5
6 3 10 -1 10 -9 0 -9 5 -16 10 -16 14 0 23 25 17 42 -4 10 -6 10 -6 0z"/>
<path d="M2240 3431 c0 -6 5 -13 10 -16 6 -3 10 1 10 9 0 9 -4 16 -10 16 -5 0
-10 -4 -10 -9z"/>
<path d="M4282 3258 c5 -15 28 -18 29 -3 0 6 -7 12 -17 13 -10 3 -15 -1 -12
-10z"/>
<path d="M4155 3192 c-16 -11 -36 -75 -26 -85 5 -5 11 3 15 18 4 14 11 23 16
20 5 -3 7 0 4 8 -3 8 -1 18 5 22 13 7 15 25 4 25 -5 0 -12 -4 -18 -8z"/>
<path d="M4117 3183 c-4 -3 -7 -16 -6 -27 0 -19 1 -19 10 3 10 24 8 36 -4 24z"/>
<path d="M5026 2874 c-5 -12 0 -15 21 -12 14 2 28 9 31 16 6 18 -45 15 -52 -4z"/>
<path d="M4938 2843 c7 -3 16 -2 19 1 4 3 -2 6 -13 5 -11 0 -14 -3 -6 -6z"/>
<path d="M4970 2836 c0 -3 25 -12 56 -21 46 -13 59 -14 65 -4 4 7 5 17 3 21
-5 8 -124 12 -124 4z"/>
<path d="M5140 2565 c-7 -9 -10 -18 -7 -21 3 -3 10 4 17 15 13 25 8 27 -10 6z"/>
<path d="M1340 3840 c0 -5 7 -10 15 -10 8 0 15 5 15 10 0 6 -7 10 -15 10 -8 0
-15 -4 -15 -10z"/>
<path d="M890 3808 c0 -14 30 -22 41 -11 7 7 2 12 -15 15 -14 3 -26 1 -26 -4z"/>
<path d="M3467 3799 c4 -13 8 -48 8 -77 0 -28 1 -52 1 -52 1 0 42 21 90 47 49
26 116 55 149 64 l60 16 -130 7 c-71 4 -143 10 -158 13 -27 5 -28 3 -20 -18z"/>
<path d="M848 3763 c7 -3 16 -2 19 1 4 3 -2 6 -13 5 -11 0 -14 -3 -6 -6z"/>
<path d="M745 3730 c-3 -5 -1 -10 4 -10 6 0 11 5 11 10 0 6 -2 10 -4 10 -3 0
-8 -4 -11 -10z"/>
<path d="M316 3713 c-3 -8 -6 -16 -6 -17 0 -4 49 -1 53 4 3 3 -5 10 -18 16
-19 9 -25 9 -29 -3z"/>
<path d="M215 3700 c-3 -5 1 -10 9 -10 9 0 16 5 16 10 0 6 -4 10 -9 10 -6 0
-13 -4 -16 -10z"/>
<path d="M173 3680 c3 -11 1 -23 -4 -26 -5 -3 -7 -10 -4 -15 4 -5 1 -9 -4 -9
-6 0 -11 -4 -11 -10 0 -5 9 -10 19 -10 11 0 23 5 26 10 3 6 1 10 -5 10 -7 0
-8 6 -2 16 11 20 4 54 -10 54 -6 0 -8 -9 -5 -20z"/>
<path d="M210 3669 c0 -5 5 -7 10 -4 6 3 10 8 10 11 0 2 -4 4 -10 4 -5 0 -10
-5 -10 -11z"/>
<path d="M3870 3529 c0 -5 5 -7 10 -4 6 3 10 8 10 11 0 2 -4 4 -10 4 -5 0 -10
-5 -10 -11z"/>
<path d="M3457 3523 c-4 -3 -7 -11 -7 -17 0 -6 5 -5 12 2 6 6 9 14 7 17 -3 3
-9 2 -12 -2z"/>
<path d="M1555 3410 c-3 -5 -1 -10 4 -10 6 0 11 5 11 10 0 6 -2 10 -4 10 -3 0
-8 -4 -11 -10z"/>
<path d="M1360 3318 c0 -4 6 -8 14 -8 8 0 17 4 20 8 2 4 -4 8 -15 8 -10 0 -19
-4 -19 -8z"/>
<path d="M1298 3301 c10 -6 2 -19 -32 -51 -25 -24 -46 -47 -46 -52 0 -5 7 -2
16 6 18 19 31 20 36 5 7 -20 46 0 52 26 7 29 -9 75 -26 75 -10 0 -10 -2 0 -9z"/>
<path d="M1230 3270 c-8 -5 -12 -12 -9 -15 4 -3 12 1 19 10 14 17 11 19 -10 5z"/>
<path d="M1293 3188 c-22 -29 -24 -41 -3 -20 12 13 20 25 17 28 -2 2 -9 -1
-14 -8z"/>
<path d="M3765 3130 c-3 -5 -17 -10 -31 -10 -28 0 -33 -17 -6 -22 15 -3 82 28
82 38 0 9 -39 3 -45 -6z"/>
<path d="M2855 3120 c-4 -6 5 -10 20 -10 15 0 24 4 20 10 -3 6 -12 10 -20 10
-8 0 -17 -4 -20 -10z"/>
<path d="M2304 3104 c-17 -14 -17 -15 -1 -10 10 3 25 6 33 6 9 0 12 5 9 10 -9
14 -18 13 -41 -6z"/>
<path d="M2950 3110 c19 -13 30 -13 30 0 0 6 -10 10 -22 10 -19 0 -20 -2 -8
-10z"/>
<path d="M2168 3103 c7 -3 16 -2 19 1 4 3 -2 6 -13 5 -11 0 -14 -3 -6 -6z"/>
<path d="M3460 3100 c0 -5 7 -10 16 -10 8 0 12 5 9 10 -3 6 -10 10 -16 10 -5
0 -9 -4 -9 -10z"/>
<path d="M3785 3100 c3 -5 8 -10 11 -10 2 0 4 5 4 10 0 6 -5 10 -11 10 -5 0
-7 -4 -4 -10z"/>
<path d="M2670 3045 c-7 -8 -22 -15 -33 -15 -11 0 -18 -2 -15 -5 10 -10 89 7
85 18 -6 18 -23 19 -37 2z"/>
<path d="M3404 3049 c-3 -5 -11 -6 -17 -3 -7 4 -5 0 3 -8 23 -24 66 -30 80
-13 10 12 9 16 -1 19 -38 12 -60 13 -65 5z"/>
<path d="M3631 3057 c2 -1 15 -11 29 -22 l25 -20 -19 23 c-11 12 -24 22 -29
22 -6 0 -8 -1 -6 -3z"/>
<path d="M2513 3035 c-7 -20 0 -27 20 -19 9 3 13 12 10 20 -7 19 -22 18 -30
-1z"/>
<path d="M3325 3040 c-3 -5 -2 -10 4 -10 5 0 13 5 16 10 3 6 2 10 -4 10 -5 0
-13 -4 -16 -10z"/>
<path d="M2272 3024 c9 -9 21 -13 27 -9 16 10 3 25 -22 25 -20 0 -20 -1 -5
-16z"/>
<path d="M2380 3026 c0 -2 9 -6 20 -9 11 -3 18 -1 14 4 -5 9 -34 13 -34 5z"/>
<path d="M2948 3023 c7 -3 16 -2 19 1 4 3 -2 6 -13 5 -11 0 -14 -3 -6 -6z"/>
<path d="M3258 3023 c7 -3 16 -2 19 1 4 3 -2 6 -13 5 -11 0 -14 -3 -6 -6z"/>
<path d="M937 2984 c-12 -14 -39 -43 -59 -65 -35 -38 -55 -75 -45 -85 3 -3 29
8 58 25 30 16 90 42 134 56 44 15 81 28 82 29 1 0 4 13 8 28 l7 27 -33 -16
c-17 -9 -45 -16 -61 -17 -18 -1 -26 -5 -24 -13 3 -7 1 -15 -4 -18 -6 -4 -10
-1 -10 5 0 6 -4 8 -10 5 -21 -13 -31 7 -16 31 19 28 20 34 5 34 -6 0 -20 -12
-32 -26z"/>
<path d="M1265 2990 c-9 -15 8 -33 27 -28 13 2 12 6 -2 21 -13 13 -20 15 -25
7z"/>
<path d="M3606 2991 c-7 -11 22 -23 36 -15 6 4 5 10 -3 15 -18 11 -26 11 -33
0z"/>
<path d="M2585 2970 c-3 -5 1 -10 10 -10 9 0 13 5 10 10 -3 6 -8 10 -10 10 -2
0 -7 -4 -10 -10z"/>
<path d="M3250 2971 c-62 -8 -39 -17 50 -19 69 -2 73 -1 56 13 -20 16 -30 16
-106 6z"/>
<path d="M3736 2973 c-3 -3 -3 -10 0 -14 7 -12 44 -12 44 0 0 10 -36 21 -44
14z"/>
<path d="M2828 2963 c7 -3 16 -2 19 1 4 3 -2 6 -13 5 -11 0 -14 -3 -6 -6z"/>
<path d="M2895 2960 c-8 -13 5 -13 25 0 13 8 13 10 -2 10 -9 0 -20 -4 -23 -10z"/>
<path d="M3818 2963 c6 -2 18 -2 25 0 6 3 1 5 -13 5 -14 0 -19 -2 -12 -5z"/>
<path d="M2730 2950 c0 -5 9 -10 20 -10 11 0 20 5 20 10 0 6 -9 10 -20 10 -11
0 -20 -4 -20 -10z"/>
<path d="M1233 2938 c-4 -7 -9 -32 -10 -56 -2 -55 -9 -73 -27 -66 -8 3 -17 1
-21 -5 -3 -6 0 -11 7 -11 7 0 2 -7 -10 -16 -16 -11 -21 -21 -16 -36 5 -18 3
-20 -15 -15 -12 3 -19 1 -16 -3 3 -5 1 -11 -5 -15 -5 -3 -14 -24 -20 -45 -6
-22 -15 -40 -21 -40 -6 0 -7 -4 -4 -10 3 -5 1 -10 -5 -10 -6 0 -9 -4 -5 -9 6
-11 -26 -31 -51 -31 -12 0 -14 4 -7 13 19 23 22 57 6 57 -8 0 -12 4 -9 9 4 5
-3 7 -13 4 -11 -3 -21 -15 -23 -27 -2 -13 -11 -22 -23 -22 -11 -1 -29 -2 -39
-3 -20 -1 -20 -1 0 -15 19 -14 19 -15 -4 -45 -12 -17 -22 -35 -22 -41 0 -6 -7
-13 -15 -16 -8 -4 -15 -13 -15 -20 0 -8 -11 -19 -25 -24 -14 -5 -25 -14 -25
-19 0 -5 -16 -16 -36 -26 -29 -14 -35 -21 -30 -39 3 -13 -3 -38 -15 -60 -11
-21 -18 -44 -16 -50 3 -7 -1 -23 -8 -36 -9 -17 -10 -30 -4 -43 6 -9 7 -21 5
-26 -9 -13 20 -21 32 -9 7 7 10 5 8 -8 -2 -11 -10 -18 -19 -16 -19 3 -27 -9
-34 -51 -6 -37 -20 -57 -39 -57 -8 0 -14 -9 -14 -20 0 -22 -15 -27 -26 -8 -4
7 -3 8 4 4 11 -7 25 45 22 80 -6 54 1 94 16 94 8 0 12 5 9 10 -4 6 -11 8 -16
5 -5 -4 -9 -2 -9 4 0 5 5 11 11 13 8 3 8 10 -2 26 -8 12 -20 20 -26 17 -8 -2
-13 4 -13 15 0 18 3 19 20 8 22 -14 28 -11 34 23 7 36 7 36 16 14 7 -16 9 -17
9 -3 1 9 -4 20 -10 24 -8 5 -8 9 1 14 9 6 6 10 -9 15 -21 6 -30 35 -10 35 5 0
7 4 4 10 -3 5 -1 26 4 47 16 58 -2 26 -46 -82 -84 -203 -116 -321 -82 -300 5
4 9 2 9 -4 0 -16 -18 -23 -22 -9 -7 21 -29 -30 -34 -78 -3 -31 0 -44 8 -44 9
0 8 -3 -2 -10 -11 -7 -7 -8 15 -6 16 2 31 8 33 15 2 6 7 11 12 11 14 0 19 -27
10 -63 -5 -23 -4 -37 3 -40 5 -1 11 -20 11 -41 1 -20 7 -40 12 -44 6 -4 10
-18 9 -32 -3 -34 4 -43 21 -29 11 9 15 8 20 -4 3 -9 3 -20 0 -26 -9 -13 4 -42
16 -35 5 3 13 17 18 30 5 13 14 24 20 24 19 0 23 -30 7 -53 -15 -24 -7 -60 10
-43 9 8 10 13 12 51 0 14 6 25 12 25 5 0 7 -5 3 -12 -5 -8 4 -9 34 -4 31 5 42
3 42 -7 0 -19 54 -47 91 -47 34 0 34 0 -66 -100 -55 -55 -103 -100 -108 -100
-5 0 -33 12 -63 27 -68 33 -126 86 -170 155 -36 56 -45 58 -18 5 34 -66 77
-119 122 -152 26 -18 55 -47 65 -64 l18 -30 -235 -244 c-128 -134 -237 -254
-241 -266 -8 -26 10 -51 37 -51 50 0 114 61 358 338 l125 142 43 -45 c44 -46
145 -104 214 -123 33 -9 38 -8 52 12 8 14 37 30 70 40 53 17 67 28 48 40 -5 3
-2 41 7 86 14 71 18 80 38 80 12 0 26 -6 30 -12 4 -7 18 -18 30 -25 20 -11 24
-9 43 23 21 33 21 36 6 53 -15 17 -21 17 -56 5 -90 -31 -391 -43 -390 -16 1
15 163 113 177 108 10 -4 13 -2 10 8 -3 8 16 26 56 50 69 40 87 44 87 19 1
-17 1 -17 11 0 19 32 29 17 12 -18 -9 -19 -23 -35 -31 -35 -8 0 -25 -12 -37
-26 -18 -21 -31 -26 -71 -26 -67 -1 -90 -11 -102 -48 -9 -25 -9 -32 3 -37 9
-3 22 0 30 7 8 6 20 8 26 4 8 -4 9 -3 5 4 -5 8 2 12 19 12 15 0 24 -4 20 -10
-3 -6 10 -1 29 11 21 12 33 26 30 34 -7 18 32 56 50 49 9 -3 21 6 32 25 18 31
34 40 34 20 0 -5 5 -7 10 -4 6 3 10 11 10 16 0 6 -4 7 -10 4 -16 -10 -12 21 5
35 8 7 15 20 15 30 0 19 27 30 71 30 20 0 30 8 39 30 21 50 34 48 26 -4 -8
-50 -8 -51 46 -35 29 8 39 16 44 37 3 15 9 34 15 42 33 53 19 65 -22 19 -23
-26 -32 -31 -38 -20 -5 7 -15 10 -22 7 -8 -4 4 10 26 31 50 47 82 91 90 126 4
15 11 25 15 22 5 -3 6 4 3 15 -3 12 1 22 10 26 10 3 14 14 11 30 -2 13 0 24 6
24 5 0 10 6 10 13 0 18 70 93 70 76 1 -8 7 0 16 16 l14 30 -5 -32 c-2 -18 0
-35 6 -39 6 -4 4 -15 -6 -31 -9 -14 -15 -33 -12 -43 3 -10 0 -21 -7 -23 -6 -2
-20 -30 -30 -61 -17 -48 -18 -59 -6 -66 8 -5 18 -6 22 -4 4 3 8 0 8 -5 0 -6
-6 -11 -14 -11 -11 0 -56 -76 -56 -95 0 -2 26 8 58 24 31 16 72 32 90 36 29 6
38 15 58 61 13 30 34 94 46 142 18 70 23 82 28 59 l5 -29 24 25 c22 25 23 26
2 20 -37 -9 -26 32 15 58 27 16 32 24 22 30 -7 5 -21 6 -30 3 -20 -6 -25 24
-9 55 6 10 6 23 0 32 -7 11 -9 8 -10 -11 -1 -17 -3 -20 -6 -7 -2 9 -9 15 -14
12 -15 -10 -10 17 8 37 15 17 15 18 -1 18 -9 0 -14 5 -11 10 3 6 0 10 -7 10
-9 1 -8 5 4 13 12 10 16 30 17 85 0 40 -3 70 -8 68 -5 -3 -12 6 -15 20 -7 24
-8 25 -20 9 -8 -12 -15 -14 -20 -7 -3 6 3 17 14 25 16 11 19 21 14 46 -5 22
-10 29 -17 22 -7 -7 -6 -15 3 -26 10 -12 10 -19 2 -27 -7 -7 -13 -9 -13 -5 -1
4 -3 12 -4 17 -1 6 -3 16 -4 23 -1 6 -7 1 -12 -12 l-9 -23 -19 23 c-18 22 -19
22 -45 6 -14 -10 -27 -15 -27 -12 -1 3 -2 28 -3 56 -1 36 -6 53 -18 60 -36 20
-34 109 3 109 10 0 19 7 19 15 0 8 4 15 9 15 5 0 17 3 27 7 12 4 15 3 10 -5
-4 -7 -2 -12 3 -12 25 0 8 27 -21 35 -18 6 -33 17 -33 25 -1 38 -30 53 -40 20
-9 -27 -23 -25 -37 5 -8 17 -17 24 -28 20 -12 -4 -19 1 -23 15 -7 27 -67 29
-68 3 0 -11 -3 -13 -6 -5 -2 6 -10 9 -16 5 -7 -4 -8 0 -4 12 8 20 -17 44 -45
45 -25 0 -22 -26 3 -44 20 -14 21 -15 4 -38 -11 -15 -15 -17 -12 -5 4 9 3 17
-1 17 -10 -1 -42 -26 -42 -33 0 -4 8 -6 18 -5 9 1 37 0 62 -1 41 -1 43 -3 27
-16 -20 -14 -16 -55 6 -55 6 0 3 -6 -8 -13 -12 -10 -16 -22 -13 -40 3 -15 1
-27 -4 -27 -5 0 -16 -7 -25 -15 -14 -14 -18 -13 -40 11 -15 16 -31 24 -43 21
-14 -3 -22 3 -31 26 -10 24 -10 32 -1 35 7 2 12 14 12 26 0 12 7 31 15 42 8
10 15 29 15 40 0 12 7 27 15 34 11 9 13 16 6 23 -7 7 -15 6 -24 -1 -17 -14
-31 -4 -17 13 7 8 -8 12 -60 13 -46 2 -71 -2 -77 -10z m105 -99 c0 -45 -3 -51
-26 -60 -22 -8 -24 -12 -12 -21 13 -8 12 -9 -2 -5 -9 3 -19 -1 -22 -9 -3 -9
-11 -12 -17 -8 -9 5 -8 10 3 18 9 6 19 26 22 44 4 17 11 32 16 32 5 0 11 14
15 30 10 47 24 35 23 -21z m222 -3 c0 -3 -4 -8 -10 -11 -5 -3 -10 -1 -10 4 0
6 5 11 10 11 6 0 10 -2 10 -4z m97 -58 c-3 -7 -5 -2 -5 12 0 14 2 19 5 13 2
-7 2 -19 0 -25z m-17 -56 c-36 -12 -70 -82 -39 -82 5 0 7 -5 3 -11 -5 -8 -8
-8 -14 0 -5 9 -10 8 -19 -3 -13 -16 1 -32 19 -21 6 3 10 0 10 -7 0 -10 2 -10
9 1 10 16 23 -1 16 -21 -3 -8 3 -42 14 -76 10 -34 15 -59 10 -56 -5 3 -9 -2
-9 -11 0 -9 -5 -13 -10 -10 -8 5 -8 11 0 20 8 9 5 14 -10 18 -11 3 -20 13 -20
24 0 29 -11 35 -26 15 -12 -16 -13 -15 -11 6 1 12 5 22 9 22 4 0 8 5 8 11 0 6
-8 8 -19 4 -14 -4 -23 0 -30 14 -6 10 -19 18 -28 17 -10 -2 -12 -1 -5 1 16 6
15 13 -2 27 -8 6 -17 22 -21 35 -6 20 -4 23 10 17 12 -4 20 2 28 24 7 18 21
33 34 36 23 6 37 29 42 64 0 6 15 -4 33 -22 21 -21 27 -33 18 -36z m-465 -32
c3 -5 -1 -10 -10 -10 -9 0 -13 5 -10 10 3 6 8 10 10 10 2 0 7 -4 10 -10z m155
-41 c0 -5 -7 -9 -15 -9 -8 0 -15 7 -15 15 0 9 6 12 15 9 8 -4 15 -10 15 -15z
m-73 5 c12 -3 19 -12 17 -19 -6 -16 -56 -5 -62 13 -4 13 11 15 45 6z m443 -44
c0 -5 -4 -10 -10 -10 -5 0 -10 5 -10 10 0 6 5 10 10 10 6 0 10 -4 10 -10z
m-205 -60 c3 -5 1 -10 -4 -10 -6 0 -11 5 -11 10 0 6 2 10 4 10 3 0 8 -4 11
-10z m-52 -25 c-3 -9 -8 -14 -10 -11 -3 3 -2 9 2 15 9 16 15 13 8 -4z m255 -7
c-6 -18 -28 -21 -28 -4 0 9 7 16 16 16 9 0 14 -5 12 -12z m-578 -45 c0 -5 -12
-16 -25 -26 -24 -17 -24 -17 -18 0 9 26 44 46 43 26z m580 -8 c0 -2 -7 -5 -15
-9 -9 -3 -15 0 -15 9 0 9 6 12 15 9 8 -4 15 -7 15 -9z m-530 -45 c0 -14 7 -20
21 -20 41 0 12 -23 -34 -27 -37 -3 -47 0 -47 12 0 9 9 15 24 15 19 0 23 4 19
20 -3 11 0 20 6 20 6 0 11 -9 11 -20z m631 11 c4 -1 1 -18 -6 -38 -10 -30 -18
-38 -39 -39 -26 -1 -41 19 -29 38 3 6 1 8 -5 4 -5 -3 -13 0 -16 6 -3 7 -3 -5
1 -27 l6 -40 -22 27 c-25 31 -26 36 -5 59 15 16 49 19 115 10z m-706 -21 c3
-5 -1 -10 -9 -10 -9 0 -16 5 -16 10 0 6 4 10 9 10 6 0 13 -4 16 -10z m365
-110 c0 -5 -2 -10 -4 -10 -3 0 -8 5 -11 10 -3 6 -1 10 4 10 6 0 11 -4 11 -10z
m324 -37 c-3 -16 -5 -36 -5 -46 0 -9 -4 -15 -10 -12 -13 9 -11 59 3 73 16 16
17 16 12 -15z m-309 -23 c3 -5 1 -10 -4 -10 -6 0 -11 5 -11 10 0 6 2 10 4 10
3 0 8 -4 11 -10z m75 -51 c0 -5 -4 -9 -10 -9 -5 0 -10 7 -10 16 0 8 5 12 10 9
6 -3 10 -10 10 -16z m-970 -36 c-11 -17 -11 -17 -6 0 3 10 6 24 7 30 0 9 2 9
5 0 3 -7 0 -20 -6 -30z m610 17 c-20 -13 -33 -13 -25 0 3 6 14 10 23 10 15 0
15 -2 2 -10z m400 -6 c0 -2 -7 -4 -15 -4 -8 0 -15 4 -15 10 0 5 7 7 15 4 8 -4
15 -8 15 -10z m-240 -18 c14 -18 14 -18 -7 -6 -12 8 -19 18 -16 23 3 4 6 7 7
5 1 -2 8 -12 16 -22z m-140 10 c0 -3 -4 -8 -10 -11 -5 -3 -10 -1 -10 4 0 6 5
11 10 11 6 0 10 -2 10 -4z m680 -16 c0 -5 -5 -10 -11 -10 -5 0 -7 5 -4 10 3 6
8 10 11 10 2 0 4 -4 4 -10z m-35 -20 c-3 -5 -11 -10 -16 -10 -6 0 -7 5 -4 10
3 6 11 10 16 10 6 0 7 -4 4 -10z m-621 -9 c3 -5 -1 -11 -9 -15 -15 -6 -29 7
-18 18 9 9 21 8 27 -3z m-639 -20 c3 -5 1 -12 -5 -16 -5 -3 -10 1 -10 9 0 18
6 21 15 7z m272 -7 c-3 -3 -12 -4 -19 -1 -8 3 -5 6 6 6 11 1 17 -2 13 -5z
m382 -17 c0 -9 -2 -8 -6 1 -2 6 -10 9 -15 6 -7 -4 -8 -2 -4 5 9 13 26 5 25
-12z m501 13 c0 -5 -2 -10 -4 -10 -3 0 -8 5 -11 10 -3 6 -1 10 4 10 6 0 11 -4
11 -10z m-450 -45 c4 3 10 -15 12 -40 3 -45 -4 -53 -30 -36 -10 6 -10 10 2 20
11 9 13 19 5 37 -9 26 -12 50 -2 26 2 -6 8 -10 13 -7z m281 -63 c-13 -47 -78
-148 -117 -182 -29 -24 -29 -24 2 10 55 62 83 112 101 184 10 38 19 60 21 49
2 -12 -2 -39 -7 -61z m181 36 c-7 -7 -12 -8 -12 -2 0 6 3 14 7 17 3 4 9 5 12
2 2 -3 -1 -11 -7 -17z m-1192 -14 c0 -20 -4 -25 -20 -22 -22 3 -28 23 -7 23 6
1 11 6 10 13 -2 7 2 12 7 12 6 0 10 -12 10 -26z m530 -12 c0 -14 -2 -14 -9 -3
-5 7 -14 10 -20 7 -6 -4 -11 -3 -11 3 0 11 21 20 33 14 4 -2 7 -12 7 -21z
m662 -17 c-4 -25 -19 -41 -28 -32 -6 6 17 57 26 57 4 0 5 -11 2 -25z m-892
-26 c0 -7 -18 -7 -48 0 -2 1 -1 5 2 10 7 11 46 2 46 -10z m-181 -28 c-15 -5
-22 6 -14 19 6 9 10 9 16 -1 5 -8 4 -15 -2 -18z m391 -71 c0 -5 -5 -10 -11
-10 -5 0 -7 5 -4 10 3 6 8 10 11 10 2 0 4 -4 4 -10z m-76 -282 c-49 -51 -121
-129 -159 -173 -39 -44 -115 -129 -170 -190 -55 -61 -146 -163 -202 -226 -101
-114 -164 -177 -148 -149 5 8 34 42 66 75 31 33 76 83 100 111 24 28 118 134
209 235 239 266 285 320 267 314 -30 -12 -27 14 4 29 28 14 30 14 25 -1 -4 -9
14 3 39 25 78 73 62 45 -31 -50z m37 -26 c-13 -9 -43 -28 -65 -41 l-41 -24 30
32 c16 17 43 36 60 40 42 13 43 12 16 -7z m-776 -752 c-3 -5 -14 -10 -23 -9
-14 0 -13 2 3 9 27 11 27 11 20 0z"/>
<path d="M1600 2539 c0 -5 5 -7 10 -4 6 3 10 8 10 11 0 2 -4 4 -10 4 -5 0 -10
-5 -10 -11z"/>
<path d="M1621 2484 c0 -11 3 -14 6 -6 3 7 2 16 -1 19 -3 4 -6 -2 -5 -13z"/>
<path d="M1670 2920 c0 -5 -8 -10 -17 -10 -15 0 -16 -2 -3 -10 22 -14 27 -12
33 10 3 11 1 20 -4 20 -5 0 -9 -4 -9 -10z"/>
<path d="M2553 2893 c-25 -10 -12 -23 22 -23 19 0 35 5 35 10 0 6 -4 10 -9 10
-5 0 -15 2 -23 4 -7 3 -19 2 -25 -1z"/>
<path d="M3005 2891 c-36 -6 -38 -7 -20 -18 25 -14 72 -6 79 13 6 15 4 15 -59
5z"/>
<path d="M3096 2891 c-4 -7 -5 -15 -2 -18 9 -9 19 4 14 18 -4 11 -6 11 -12 0z"/>
<path d="M3238 2893 c-19 -5 -24 -18 -9 -28 5 -3 17 2 25 11 25 24 22 27 -16
17z"/>
<path d="M3655 2889 c-4 -6 -5 -13 -2 -16 7 -7 27 6 27 18 0 12 -17 12 -25 -2z"/>
<path d="M3825 2890 c-4 -6 3 -10 14 -10 25 0 27 6 6 13 -8 4 -17 2 -20 -3z"/>
<path d="M2303 2869 c14 -8 22 -8 30 0 8 8 3 11 -18 11 -26 -1 -28 -2 -12 -11z"/>
<path d="M2000 2860 c0 -5 12 -10 26 -10 14 0 23 4 19 10 -3 6 -15 10 -26 10
-10 0 -19 -4 -19 -10z"/>
<path d="M3810 2820 c-12 -8 -9 -10 13 -10 15 0 27 5 27 10 0 13 -20 13 -40 0z"/>
<path d="M2415 2810 l-30 -8 27 -1 c15 0 30 4 33 9 3 6 5 9 3 9 -2 -1 -16 -5
-33 -9z"/>
<path d="M2680 2805 c-13 -16 -3 -20 24 -9 9 3 13 10 10 15 -8 13 -20 11 -34
-6z"/>
<path d="M2982 2811 c-11 -7 -10 -10 3 -15 26 -10 35 -7 35 9 0 17 -18 19 -38
6z"/>
<path d="M3245 2810 c-3 -5 1 -10 9 -10 9 0 16 5 16 10 0 6 -4 10 -9 10 -6 0
-13 -4 -16 -10z"/>
<path d="M3707 2814 c-13 -13 -7 -24 14 -24 11 0 19 5 17 12 -5 14 -22 21 -31
12z"/>
<path d="M2845 2800 c22 -5 44 -4 50 1 5 5 -11 9 -40 8 l-50 -1 40 -8z"/>
<path d="M3130 2800 c0 -5 9 -10 21 -10 11 0 17 5 14 10 -3 6 -13 10 -21 10
-8 0 -14 -4 -14 -10z"/>
<path d="M992 2768 c-15 -15 -16 -41 0 -36 13 5 31 48 20 48 -5 0 -13 -5 -20
-12z"/>
<path d="M2035 2770 c-3 -6 1 -7 9 -4 18 7 21 14 7 14 -6 0 -13 -4 -16 -10z"/>
<path d="M3786 2753 c-3 -3 -3 -10 0 -14 7 -12 34 -11 34 0 0 11 -26 22 -34
14z"/>
<path d="M3370 2740 c0 -11 28 -16 68 -12 50 6 38 20 -18 20 -27 0 -50 -4 -50
-8z"/>
<path d="M3585 2740 c-4 -6 12 -10 39 -10 25 0 46 5 46 10 0 6 -18 10 -39 10
-22 0 -43 -4 -46 -10z"/>
<path d="M2600 2715 c0 -30 15 -33 30 -6 14 27 13 31 -10 31 -15 0 -20 -7 -20
-25z"/>
<path d="M3506 2721 c-3 -5 1 -11 9 -15 9 -3 15 0 15 9 0 16 -16 20 -24 6z"/>
<path d="M1978 2713 c6 -2 18 -2 25 0 6 3 1 5 -13 5 -14 0 -19 -2 -12 -5z"/>
<path d="M2958 2713 c6 -2 18 -2 25 0 6 3 1 5 -13 5 -14 0 -19 -2 -12 -5z"/>
<path d="M3098 2713 c7 -3 16 -2 19 1 4 3 -2 6 -13 5 -11 0 -14 -3 -6 -6z"/>
<path d="M1806 2675 c4 -8 8 -15 10 -15 2 0 4 7 4 15 0 8 -4 15 -10 15 -5 0
-7 -7 -4 -15z"/>
<path d="M1830 2670 c0 -5 5 -10 10 -10 6 0 10 5 10 10 0 6 -4 10 -10 10 -5 0
-10 -4 -10 -10z"/>
<path d="M3446 2665 c-3 -9 0 -15 9 -15 16 0 20 16 6 24 -5 3 -11 -1 -15 -9z"/>
<path d="M3310 2661 c0 -16 34 -31 50 -21 18 11 13 16 -23 25 -17 5 -27 3 -27
-4z"/>
<path d="M2666 2643 c-18 -10 -24 -18 -17 -22 13 -9 69 -2 76 9 2 4 -8 5 -23
2 -24 -5 -26 -4 -13 11 16 20 15 20 -23 0z"/>
<path d="M3665 2650 c3 -5 11 -10 16 -10 6 0 7 5 4 10 -3 6 -11 10 -16 10 -6
0 -7 -4 -4 -10z"/>
<path d="M3745 2650 c3 -5 19 -10 35 -10 16 0 32 5 35 10 4 6 -10 10 -35 10
-25 0 -39 -4 -35 -10z"/>
<path d="M3910 2651 c-22 -7 -21 -8 15 -13 45 -6 57 -2 35 12 -17 11 -16 11
-50 1z"/>
<path d="M1817 2643 c-15 -14 -6 -31 12 -26 12 3 17 11 14 19 -6 15 -16 18
-26 7z"/>
<path d="M2250 2642 c0 -6 -10 -8 -22 -5 -21 4 -22 3 -5 -10 22 -18 62 -17 62
3 0 8 -8 16 -17 18 -10 2 -18 -1 -18 -6z"/>
<path d="M3556 2642 c-9 -15 21 -23 46 -12 16 6 18 9 6 9 -9 1 -23 4 -31 7 -8
3 -18 1 -21 -4z"/>
<path d="M3968 2583 c-16 -4 -34 -33 -20 -33 12 0 48 28 42 32 -3 3 -12 3 -22
1z"/>
<path d="M2067 2563 c-4 -3 -28 -7 -54 -8 -65 -3 -71 -5 -48 -14 11 -5 26 -5
34 -1 8 4 25 3 38 -3 19 -8 27 -7 39 5 9 9 12 18 6 22 -5 3 -12 3 -15 -1z"/>
<path d="M2475 2559 c-9 -14 0 -22 18 -17 13 2 13 5 2 15 -10 9 -16 9 -20 2z"/>
<path d="M2647 2556 c-4 -10 -1 -13 8 -9 8 3 12 9 9 14 -7 12 -11 11 -17 -5z"/>
<path d="M3250 2560 c-25 -6 -25 -6 -3 -12 13 -3 26 -2 29 4 9 14 2 16 -26 8z"/>
<path d="M3462 2558 c7 -19 35 -21 35 -3 0 8 -9 15 -19 15 -11 0 -18 -5 -16
-12z"/>
<path d="M3640 2560 c0 -5 5 -10 11 -10 5 0 7 5 4 10 -3 6 -8 10 -11 10 -2 0
-4 -4 -4 -10z"/>
<path d="M3370 2550 c20 -13 40 -13 40 0 0 6 -12 10 -27 10 -22 0 -25 -2 -13
-10z"/>
<path d="M2149 2539 c-10 -6 -4 -9 18 -9 17 0 34 4 37 9 7 11 -38 11 -55 0z"/>
<path d="M1881 2528 c0 -7 4 -22 9 -33 8 -18 9 -17 9 7 1 15 -3 30 -9 33 -5 3
-10 0 -9 -7z"/>
<path d="M701 2494 c0 -11 3 -14 6 -6 3 7 2 16 -1 19 -3 4 -6 -2 -5 -13z"/>
<path d="M3400 2497 c0 -14 50 -47 72 -47 8 0 23 9 33 20 10 11 13 20 8 20 -6
0 -16 -7 -23 -15 -11 -13 -16 -13 -29 -3 -36 29 -61 39 -61 25z"/>
<path d="M3763 2497 c-8 -13 45 -26 82 -20 38 6 57 21 28 22 -10 1 -38 2 -61
3 -24 2 -46 0 -49 -5z"/>
<path d="M2984 2491 c-12 -12 -1 -21 25 -21 16 0 31 -6 33 -13 2 -10 11 -11
36 -5 19 5 32 14 29 21 -3 11 -113 27 -123 18z"/>
<path d="M3185 2484 c9 -9 19 -13 23 -10 3 4 0 11 -8 16 -24 15 -33 11 -15 -6z"/>
<path d="M3645 2490 c3 -5 8 -10 11 -10 2 0 4 5 4 10 0 6 -5 10 -11 10 -5 0
-7 -4 -4 -10z"/>
<path d="M2773 2483 c-21 -8 -15 -22 7 -16 11 3 20 9 20 14 0 10 -8 10 -27 2z"/>
<path d="M3598 2483 c7 -3 16 -2 19 1 4 3 -2 6 -13 5 -11 0 -14 -3 -6 -6z"/>
<path d="M2080 2460 c0 -5 7 -7 15 -4 8 4 15 8 15 10 0 2 -7 4 -15 4 -8 0 -15
-4 -15 -10z"/>
<path d="M2878 2453 c7 -3 16 -2 19 1 4 3 -2 6 -13 5 -11 0 -14 -3 -6 -6z"/>
<path d="M3520 2409 c0 -5 5 -7 10 -4 6 3 10 8 10 11 0 2 -4 4 -10 4 -5 0 -10
-5 -10 -11z"/>
<path d="M2726 2403 c-10 -11 -7 -43 5 -43 6 0 9 6 6 14 -3 8 -1 16 6 19 7 2
8 5 0 10 -5 4 -13 4 -17 0z"/>
<path d="M3585 2386 c-18 -13 -18 -14 8 -9 16 3 27 1 27 -6 0 -5 6 -8 14 -5
19 7 9 34 -13 34 -10 0 -26 -6 -36 -14z"/>
<path d="M2360 2381 c0 -9 24 -21 42 -21 6 0 6 6 -2 15 -14 16 -40 20 -40 6z"/>
<path d="M3180 2375 c7 -8 17 -12 22 -9 6 4 5 10 -3 15 -22 14 -33 10 -19 -6z"/>
<path d="M3683 2377 c5 -17 53 -21 60 -4 3 9 -5 13 -30 14 -21 1 -33 -3 -30
-10z"/>
<path d="M2165 2360 c-12 -13 -14 -20 -6 -20 17 0 43 28 32 34 -4 3 -16 -3
-26 -14z"/>
<path d="M2560 2365 c0 -8 4 -15 9 -15 5 0 11 7 15 15 3 9 0 15 -9 15 -8 0
-15 -7 -15 -15z"/>
<path d="M3405 2370 c-3 -5 -1 -10 4 -10 6 0 11 5 11 10 0 6 -2 10 -4 10 -3 0
-8 -4 -11 -10z"/>
<path d="M521 2343 c0 -6 -4 -20 -7 -30 -5 -14 -4 -15 5 -7 7 7 11 20 8 30 -3
11 -5 14 -6 7z"/>
<path d="M3784 2319 c-8 -13 15 -39 35 -39 20 0 47 17 40 25 -13 13 -69 23
-75 14z"/>
<path d="M3100 2312 c0 -8 36 -42 45 -42 14 0 2 20 -20 34 -14 9 -25 13 -25 8z"/>
<path d="M3460 2309 c0 -5 5 -7 10 -4 6 3 10 8 10 11 0 2 -4 4 -10 4 -5 0 -10
-5 -10 -11z"/>
<path d="M3546 2312 c-10 -16 25 -31 57 -25 29 6 47 23 24 23 -8 0 -28 3 -45
6 -16 3 -32 1 -36 -4z"/>
<path d="M3913 2301 c-11 -17 -9 -19 22 -18 33 1 33 1 13 19 -25 22 -21 22
-35 -1z"/>
<path d="M1920 2287 c0 -15 6 -23 20 -24 11 -1 22 2 25 8 4 5 1 9 -5 9 -6 0
-9 4 -6 9 3 5 -1 12 -10 15 -23 9 -24 8 -24 -17z"/>
<path d="M2725 2283 c1 -22 7 -29 26 -31 20 -2 21 -1 9 8 -12 9 -12 13 -2 17
10 4 10 8 1 19 -19 23 -35 16 -34 -13z"/>
<path d="M2295 2280 c-3 -5 1 -10 10 -10 9 0 13 5 10 10 -3 6 -8 10 -10 10 -2
0 -7 -4 -10 -10z"/>
<path d="M3405 2281 c-10 -17 12 -21 25 -6 10 12 10 15 -3 15 -9 0 -18 -4 -22
-9z"/>
<path d="M2260 2270 c0 -5 5 -10 10 -10 6 0 10 5 10 10 0 6 -4 10 -10 10 -5 0
-10 -4 -10 -10z"/>
<path d="M3308 2273 c7 -3 16 -2 19 1 4 3 -2 6 -13 5 -11 0 -14 -3 -6 -6z"/>
<path d="M3920 2210 c0 -11 4 -20 9 -20 13 0 32 26 24 33 -13 14 -33 6 -33
-13z"/>
<path d="M2920 2210 c0 -5 5 -10 10 -10 6 0 10 5 10 10 0 6 -4 10 -10 10 -5 0
-10 -4 -10 -10z"/>
<path d="M3598 2213 c7 -3 16 -2 19 1 4 3 -2 6 -13 5 -11 0 -14 -3 -6 -6z"/>
<path d="M2680 2206 c0 -10 28 -13 41 -5 10 6 7 9 -13 9 -16 0 -28 -2 -28 -4z"/>
<path d="M2776 2194 c-4 -11 -1 -14 11 -12 9 2 18 9 21 16 6 18 -25 15 -32 -4z"/>
<path d="M3995 2200 c-3 -5 1 -10 9 -10 9 0 16 5 16 10 0 6 -4 10 -9 10 -6 0
-13 -4 -16 -10z"/>
<path d="M5247 2196 c-4 -9 2 -17 14 -21 28 -9 33 -1 10 19 -16 15 -19 15 -24
2z"/>
<path d="M3438 2105 c-4 -38 10 -43 23 -8 5 14 3 25 -5 33 -11 8 -15 3 -18
-25z"/>
<path d="M2860 2114 c0 -8 5 -12 10 -9 6 4 8 11 5 16 -9 14 -15 11 -15 -7z"/>
<path d="M2970 2120 c0 -5 7 -10 16 -10 8 0 12 5 9 10 -3 6 -10 10 -16 10 -5
0 -9 -4 -9 -10z"/>
<path d="M3733 2123 c-19 -4 -21 -7 -10 -24 6 -10 22 -19 35 -19 18 0 23 5 20
22 -3 23 -12 27 -45 21z"/>
<path d="M3984 2118 c-7 -12 -5 -14 27 -21 18 -5 26 -3 26 7 0 16 -45 28 -53
14z"/>
<path d="M2219 2102 c-15 -13 -19 -21 -11 -26 7 -4 12 -3 12 1 0 5 15 7 34 5
18 -2 37 1 40 7 5 7 -3 11 -19 11 -15 0 -24 4 -20 10 10 16 -11 11 -36 -8z"/>
<path d="M2572 2112 c-22 -7 -22 -7 -2 -20 17 -10 20 -10 20 4 0 8 4 13 9 9 5
-3 12 -1 16 5 7 11 -8 12 -43 2z"/>
<path d="M2641 2111 c-11 -7 -10 -11 6 -19 15 -9 19 -7 19 9 0 21 -4 23 -25
10z"/>
<path d="M3820 2111 c0 -16 27 -31 44 -25 28 11 19 34 -14 34 -16 0 -30 -4
-30 -9z"/>
<path d="M468 2097 c7 -8 8 -18 4 -22 -4 -5 -1 -5 6 -1 17 10 15 23 -4 30 -13
5 -14 4 -6 -7z"/>
<path d="M2770 2088 c23 -25 33 -23 35 5 1 12 -6 17 -27 17 l-29 0 21 -22z"/>
<path d="M3190 2105 c0 -2 9 -9 20 -15 16 -9 20 -8 20 5 0 8 -9 15 -20 15 -11
0 -20 -2 -20 -5z"/>
<path d="M2338 2093 c6 -2 18 -2 25 0 6 3 1 5 -13 5 -14 0 -19 -2 -12 -5z"/>
<path d="M5073 2093 c9 -2 23 -2 30 0 6 3 -1 5 -18 5 -16 0 -22 -2 -12 -5z"/>
<path d="M3295 2080 c-3 -5 1 -10 9 -10 9 0 16 5 16 10 0 6 -4 10 -9 10 -6 0
-13 -4 -16 -10z"/>
<path d="M5220 2080 c-12 -8 -9 -10 12 -10 15 0 30 5 33 10 8 13 -25 13 -45 0z"/>
<path d="M2060 2070 c0 -5 7 -10 16 -10 8 0 12 5 9 10 -3 6 -10 10 -16 10 -5
0 -9 -4 -9 -10z"/>
<path d="M5078 2063 c7 -3 16 -2 19 1 4 3 -2 6 -13 5 -11 0 -14 -3 -6 -6z"/>
<path d="M5067 2039 c8 -8 19 -8 40 -1 28 10 28 10 -11 11 -29 1 -37 -2 -29
-10z"/>
<path d="M2805 2021 c-3 -5 -1 -12 5 -16 5 -3 10 1 10 9 0 18 -6 21 -15 7z"/>
<path d="M3302 2018 c6 -18 28 -21 28 -4 0 9 -7 16 -16 16 -9 0 -14 -5 -12
-12z"/>
<path d="M2160 2010 c20 -13 43 -13 35 0 -3 6 -16 10 -28 10 -18 0 -19 -2 -7
-10z"/>
<path d="M2621 1998 c-6 -17 -4 -25 8 -29 22 -9 29 -3 29 26 0 31 -26 33 -37
3z"/>
<path d="M2915 2010 c-3 -5 -2 -10 4 -10 5 0 13 5 16 10 3 6 2 10 -4 10 -5 0
-13 -4 -16 -10z"/>
<path d="M3730 2010 c0 -5 6 -10 14 -10 7 0 20 -10 28 -22 14 -21 17 -21 70
-9 31 8 60 11 65 8 5 -3 23 -2 39 3 16 4 21 9 12 9 -10 1 -18 5 -18 11 0 6
-10 6 -27 -1 -19 -7 -35 -7 -54 1 -18 8 -33 8 -46 2 -13 -7 -24 -6 -38 4 -22
16 -45 18 -45 4z"/>
<path d="M2270 1995 c0 -8 7 -15 16 -15 14 0 14 3 4 15 -7 8 -14 15 -16 15 -2
0 -4 -7 -4 -15z"/>
<path d="M2432 2003 c-6 -3 -10 -9 -6 -14 8 -14 48 -11 70 6 18 14 17 14 -9 3
-20 -8 -31 -9 -35 -1 -4 5 -13 8 -20 6z"/>
<path d="M3050 1995 c0 -9 5 -15 11 -13 6 2 11 8 11 13 0 5 -5 11 -11 13 -6 2
-11 -4 -11 -13z"/>
<path d="M3124 2001 c4 -5 1 -12 -4 -14 -6 -3 -5 -4 2 -3 15 3 23 26 8 26 -6
0 -9 -4 -6 -9z"/>
<path d="M3500 1994 c0 -8 5 -12 10 -9 6 3 10 10 10 16 0 5 -4 9 -10 9 -5 0
-10 -7 -10 -16z"/>
<path d="M3605 2000 c-3 -6 1 -7 9 -4 18 7 21 14 7 14 -6 0 -13 -4 -16 -10z"/>
<path d="M4070 2001 c0 -5 9 -11 20 -14 24 -6 27 8 4 17 -21 8 -24 8 -24 -3z"/>
<path d="M2695 1981 c-7 -12 31 -25 45 -16 6 4 8 11 5 16 -8 12 -42 12 -50 0z"/>
<path d="M2000 1970 c-8 -5 -10 -10 -5 -10 6 0 17 5 25 10 8 5 11 10 5 10 -5
0 -17 -5 -25 -10z"/>
<path d="M1847 1854 c-15 -48 -26 -88 -24 -90 2 -3 16 2 31 10 16 8 23 17 17
21 -16 9 -13 71 4 89 10 10 12 21 7 36 -6 17 -13 4 -35 -66z"/>
<path d="M3973 1933 c-24 -8 -13 -20 17 -19 16 1 30 4 30 7 0 9 -32 17 -47 12z"/>
<path d="M2710 1920 c0 -5 9 -10 21 -10 11 0 17 5 14 10 -3 6 -13 10 -21 10
-8 0 -14 -4 -14 -10z"/>
<path d="M2982 1905 c-7 -14 -12 -28 -12 -30 0 -12 39 -4 50 10 10 11 9 18 -3
30 -20 20 -22 19 -35 -10z"/>
<path d="M3270 1914 c7 -12 20 -26 29 -31 14 -9 17 -7 18 11 1 11 -1 15 -4 8
-4 -10 -12 -7 -30 10 -23 21 -25 21 -13 2z"/>
<path d="M4116 1905 c4 -8 10 -12 15 -9 14 8 10 24 -6 24 -9 0 -12 -6 -9 -15z"/>
<path d="M1930 1903 c8 -3 22 -14 30 -24 11 -13 19 -16 30 -9 12 8 11 11 -7
16 -13 4 -23 10 -23 15 0 5 -10 9 -22 8 -15 0 -18 -2 -8 -6z"/>
<path d="M2135 1899 c-10 -15 1 -23 20 -15 9 3 13 10 10 16 -8 13 -22 13 -30
-1z"/>
<path d="M2340 1895 c0 -8 4 -15 9 -15 5 0 14 7 21 15 10 13 9 15 -9 15 -12 0
-21 -6 -21 -15z"/>
<path d="M3434 1885 c-7 -19 3 -35 23 -35 12 0 13 3 3 15 -6 8 -9 19 -5 25 3
5 1 10 -5 10 -6 0 -13 -7 -16 -15z"/>
<path d="M3530 1886 c0 -16 21 -26 53 -26 24 0 14 11 -25 28 -23 9 -28 9 -28
-2z"/>
<path d="M3648 1893 c7 -3 16 -2 19 1 4 3 -2 6 -13 5 -11 0 -14 -3 -6 -6z"/>
<path d="M3684 1888 c-5 -7 -2 -9 8 -5 9 3 21 0 27 -6 8 -8 11 -7 11 6 0 19
-35 23 -46 5z"/>
<path d="M2295 1870 c4 -6 11 -8 16 -5 14 9 11 15 -7 15 -8 0 -12 -5 -9 -10z"/>
<path d="M2855 1860 c-3 -5 -1 -10 4 -10 6 0 11 5 11 10 0 6 -2 10 -4 10 -3 0
-8 -4 -11 -10z"/>
<path d="M3060 1824 c0 -8 5 -12 10 -9 6 4 8 11 5 16 -9 14 -15 11 -15 -7z"/>
<path d="M4005 1830 c3 -5 16 -10 28 -10 18 0 19 2 7 10 -20 13 -43 13 -35 0z"/>
<path d="M3909 1816 c9 -10 9 -16 1 -21 -7 -4 -1 -12 15 -21 32 -17 35 -17 35
-4 0 6 -8 10 -17 10 -13 0 -14 3 -6 11 16 16 5 39 -19 39 -17 0 -18 -3 -9 -14z"/>
<path d="M1938 1813 c7 -3 16 -2 19 1 4 3 -2 6 -13 5 -11 0 -14 -3 -6 -6z"/>
<path d="M2670 1810 c0 -5 7 -10 15 -10 8 0 15 5 15 10 0 6 -7 10 -15 10 -8 0
-15 -4 -15 -10z"/>
<path d="M2763 1808 c-13 -6 -23 -15 -23 -19 0 -14 21 -21 33 -11 22 17 56 21
50 6 -2 -7 -12 -15 -21 -17 -13 -4 -12 -5 4 -6 11 0 29 6 40 14 10 8 29 15 41
15 40 0 36 20 -4 21 -21 1 -51 3 -68 4 -16 2 -40 -2 -52 -7z"/>
<path d="M3318 1806 c-10 -7 -18 -21 -18 -30 0 -14 8 -17 38 -15 21 2 43 0 50
-4 6 -5 20 -3 31 3 11 5 29 10 41 10 13 0 19 4 14 11 -4 7 -22 9 -48 5 -34 -5
-44 -3 -58 14 -21 23 -27 24 -50 6z"/>
<path d="M4065 1810 c3 -5 8 -10 11 -10 2 0 4 5 4 10 0 6 -5 10 -11 10 -5 0
-7 -4 -4 -10z"/>
<path d="M2010 1800 c0 -6 7 -10 15 -10 8 0 15 2 15 4 0 2 -7 6 -15 10 -8 3
-15 1 -15 -4z"/>
<path d="M3490 1802 c0 -11 33 -22 68 -22 12 0 22 5 22 10 0 6 -10 10 -22 10
-13 0 -33 3 -45 6 -13 4 -23 2 -23 -4z"/>
<path d="M4329 1806 c-2 -2 -26 -7 -54 -10 -124 -14 -174 -25 -225 -51 -62
-31 -106 -40 -116 -24 -4 8 -9 7 -14 -2 -7 -10 -12 -10 -23 0 -10 8 -17 8 -22
2 -3 -6 6 -13 20 -17 13 -3 22 -10 19 -16 -3 -5 -13 -7 -21 -3 -13 4 -13 3 -4
-8 9 -11 2 -22 -36 -51 -25 -20 -64 -60 -86 -89 -60 -80 -60 -74 -1 17 l16 25
-49 3 c-32 2 -47 7 -45 16 4 20 -90 19 -148 -3 -55 -21 -90 -27 -90 -15 0 5 5
10 10 10 6 0 10 5 10 10 0 16 -42 11 -55 -6 -9 -14 -22 -15 -73 -9 -34 4 -62
11 -62 16 0 5 -9 9 -20 9 -11 0 -20 -5 -20 -11 0 -6 -24 -10 -62 -9 -35 1 -81
-2 -103 -6 -39 -6 -40 -6 -22 13 17 20 17 20 -8 15 -17 -3 -24 -9 -21 -18 4
-11 -7 -14 -47 -14 -29 0 -58 5 -65 12 -8 8 -15 8 -27 -2 -9 -8 -41 -12 -87
-11 -39 1 -74 -3 -77 -8 -4 -6 -51 0 -116 15 -133 28 -163 30 -120 7 50 -27
188 -75 225 -78 19 -2 49 -8 65 -15 40 -15 155 -16 184 -1 24 13 65 10 166
-14 44 -11 70 -12 95 -5 19 6 36 10 37 10 1 0 20 -18 42 -40 22 -22 47 -40 56
-40 8 0 15 -5 15 -11 0 -7 -7 -8 -17 -4 -31 12 -48 11 -48 -5 -1 -8 -9 -28
-20 -43 -15 -24 -16 -30 -4 -38 8 -5 26 -9 41 -9 15 0 38 -5 52 -11 14 -7 33
-8 43 -4 10 5 26 7 36 6 9 -1 17 3 17 8 0 6 -7 11 -15 11 -8 0 -15 5 -15 11 0
6 -7 8 -16 5 -8 -3 -13 -2 -9 3 8 15 -5 40 -19 35 -7 -3 -13 2 -13 10 0 17 21
11 56 -16 14 -10 40 -18 63 -18 22 0 37 -4 34 -8 -2 -4 6 -8 20 -8 13 0 24 3
24 7 0 4 25 5 55 3 42 -2 55 1 55 11 0 24 17 25 45 4 19 -16 25 -27 20 -43 -3
-11 -7 -30 -9 -42 -2 -11 -12 -34 -23 -50 -13 -18 -23 -52 -27 -90 -3 -33 -9
-69 -12 -79 -5 -13 -4 -16 4 -11 7 4 12 2 12 -3 0 -6 -9 -11 -19 -11 -23 0
-54 -28 -46 -41 10 -15 38 -11 32 5 -3 8 1 17 10 20 11 5 14 2 9 -10 -3 -9 3
-27 14 -41 11 -15 19 -39 19 -57 -2 -27 -2 -27 -6 -6 -2 14 -6 32 -9 40 -10
26 -22 -21 -16 -65 4 -32 6 -36 13 -20 6 16 8 13 8 -15 1 -27 -2 -31 -9 -20
-8 11 -9 9 -5 -10 7 -31 -26 -164 -56 -222 -35 -69 -109 -156 -172 -205 -65
-49 -96 -65 -82 -43 5 9 4 11 -4 6 -6 -4 -9 -11 -6 -16 3 -5 1 -11 -5 -15 -5
-3 -10 -1 -10 5 0 5 -21 0 -47 -14 -102 -51 -377 -117 -483 -115 -53 1 -10 15
70 23 115 11 291 50 325 71 11 6 37 18 58 24 20 7 35 17 32 22 -4 5 3 9 15 9
12 0 19 4 15 10 -3 5 8 16 25 25 36 19 39 28 6 19 -13 -3 -27 -1 -30 5 -4 6 0
11 8 11 8 0 25 10 37 23 12 12 20 18 17 12 -3 -5 0 -15 7 -21 9 -9 20 -7 43 8
32 20 42 38 21 38 -5 0 -7 5 -4 10 4 6 16 8 28 6 13 -4 9 0 -7 8 l-30 14 32 7
c18 3 32 11 32 16 0 5 6 9 14 9 8 0 18 5 22 11 4 8 0 9 -15 4 -17 -5 -48 -11
-83 -14 -3 -1 -25 -17 -49 -37 -50 -41 -113 -75 -184 -97 -60 -19 -157 -28
-148 -14 3 5 -13 8 -41 6 -32 -3 -47 0 -51 10 -4 10 -9 10 -18 2 -7 -6 -40
-13 -73 -16 -32 -4 -69 -11 -81 -17 -12 -6 -32 -9 -45 -6 -13 2 -29 -1 -36 -8
-18 -20 -416 -16 -469 4 -21 8 -47 15 -58 17 -34 4 -109 26 -135 40 -14 7 -52
26 -85 41 -33 16 -75 43 -93 61 -19 20 -43 33 -58 33 -14 0 -27 7 -31 18 -3 9
-14 26 -24 37 -10 11 -18 23 -19 27 0 4 -6 21 -11 37 -10 29 -13 30 -67 30
-49 -1 -58 2 -75 25 -10 14 -27 26 -36 26 -10 0 -28 12 -42 26 -13 14 -36 32
-51 40 -30 15 -62 19 -54 6 3 -5 -5 -15 -19 -22 -25 -14 -24 -31 5 -65 10 -11
20 -27 23 -35 3 -8 6 0 6 18 1 17 5 32 10 32 9 0 22 -71 15 -79 -2 -2 -30 -6
-62 -8 -31 -3 -52 -1 -45 4 8 6 6 20 -9 52 -11 24 -18 51 -15 60 7 26 -20 44
-58 38 -27 -4 -33 -2 -28 9 3 7 10 11 17 7 6 -3 7 -2 3 3 -5 5 -12 9 -15 9
-16 1 -52 31 -52 42 0 15 -39 17 -60 3 -12 -8 -13 -11 -1 -19 9 -6 10 -11 2
-15 -6 -4 -11 -23 -11 -42 0 -21 -5 -34 -12 -34 -12 0 -26 11 -99 76 -40 35
-166 172 -172 186 -3 8 -6 5 -6 -7 -1 -10 17 -45 39 -76 22 -32 40 -60 40 -64
0 -12 28 -34 34 -27 4 3 4 -2 0 -12 -5 -12 1 -25 20 -42 14 -14 26 -33 26 -42
0 -12 15 -25 41 -36 26 -12 44 -28 50 -45 6 -16 28 -36 60 -54 33 -18 49 -33
47 -44 -2 -11 5 -19 17 -21 60 -9 60 -9 138 -77 10 -9 15 -20 11 -26 -3 -6 0
-9 8 -7 8 2 25 -8 39 -22 24 -25 45 -37 107 -60 18 -7 40 -22 50 -34 9 -11 26
-23 37 -24 11 -2 32 -10 47 -18 15 -8 31 -14 37 -14 5 0 22 -5 38 -11 15 -6
43 -13 62 -15 18 -2 38 -7 45 -12 6 -5 48 -17 93 -28 46 -10 83 -22 83 -26 0
-5 10 -8 23 -8 31 0 77 -22 77 -38 0 -8 15 -12 48 -11 26 1 67 -5 92 -13 26
-9 108 -19 195 -23 83 -5 159 -8 170 -9 11 -1 26 -5 34 -10 8 -5 17 -4 22 5 8
12 11 11 20 -3 12 -22 33 -24 26 -3 -7 17 9 30 18 15 4 -6 11 -7 17 -4 6 4 36
6 67 5 32 -1 91 4 132 10 40 7 91 11 112 10 20 -1 37 2 37 6 0 5 26 7 57 6 56
-1 56 -1 13 6 l-45 7 70 7 c114 13 139 19 123 28 -10 7 -8 9 7 10 67 5 134 18
158 31 15 8 16 12 5 26 -10 12 -10 14 0 8 7 -4 15 -1 18 8 7 17 44 22 44 6 0
-5 -9 -10 -20 -10 -11 0 -20 -7 -20 -15 0 -17 12 -19 26 -5 6 6 34 13 62 17
45 5 52 8 47 24 -4 12 3 28 19 44 34 34 84 34 109 1 18 -23 20 -23 67 -11 26
7 54 16 62 21 14 9 19 10 55 12 12 1 28 8 35 15 7 6 24 13 38 15 13 1 28 8 32
15 4 6 8 9 8 5 0 -4 28 5 61 18 40 17 65 22 71 16 13 -13 70 6 61 21 -3 6 -1
7 5 3 20 -12 371 179 364 198 -5 13 56 46 73 40 8 -4 15 -1 15 4 0 15 -53 6
-135 -22 -38 -13 -72 -23 -74 -21 -8 9 12 24 42 31 17 3 43 11 57 16 20 8 22
11 10 19 -12 8 -10 9 6 4 24 -6 56 3 49 15 -3 4 2 11 11 14 8 3 12 2 9 -4 -3
-6 -1 -10 4 -10 6 0 11 7 11 16 0 11 5 14 17 10 10 -4 14 -4 11 0 -4 4 12 19
35 35 47 31 144 125 196 189 25 31 34 52 33 76 -1 21 4 37 14 42 26 14 17 195
-11 216 -8 6 -16 27 -18 48 -4 37 -39 93 -51 81 -9 -9 -35 28 -36 50 0 10 -4
15 -10 12 -9 -5 -12 1 -9 21 1 12 -99 101 -158 141 -90 59 -202 111 -263 123
-53 10 -133 13 -141 6z m-364 -106 c-3 -5 -12 -10 -18 -10 -7 0 -6 4 3 10 19
12 23 12 15 0z m-1320 -140 c3 -6 -1 -7 -9 -4 -18 7 -21 14 -7 14 6 0 13 -4
16 -10z m2000 -9 c-3 -6 -11 -11 -17 -11 -6 0 -6 6 2 15 14 17 26 13 15 -4z
m-1910 -19 c-3 -3 -11 0 -18 7 -9 10 -8 11 6 5 10 -3 15 -9 12 -12z m1965 -3
c0 -6 -4 -7 -10 -4 -5 3 -10 11 -10 16 0 6 5 7 10 4 6 -3 10 -11 10 -16z m-61
-28 c7 -5 12 -13 10 -18 -2 -6 -13 -2 -23 8 -20 19 -12 26 13 10z m-926 -51
c-3 -11 -10 -23 -16 -27 -5 -3 -8 -2 -5 3 3 5 8 17 11 27 9 24 16 22 10 -3z
m834 14 c-3 -3 -12 -4 -19 -1 -8 3 -5 6 6 6 11 1 17 -2 13 -5z m-52 -14 c3 -5
1 -10 -4 -10 -6 0 -11 5 -11 10 0 6 2 10 4 10 3 0 8 -4 11 -10z m59 -15 c11
-8 17 -17 14 -20 -3 -3 -13 1 -21 10 -19 19 -27 19 -27 1 0 -8 11 -17 24 -20
16 -4 23 -12 21 -23 -2 -10 -4 -20 -4 -22 -1 -3 -11 5 -24 17 -13 12 -26 20
-29 16 -3 -3 -9 0 -14 7 -5 8 -3 10 6 4 10 -6 12 -4 7 7 -5 14 9 38 23 38 3 0
14 -7 24 -15z m-287 -47 c-2 -7 -11 -12 -21 -10 -9 2 -16 -1 -16 -7 0 -5 -9
-7 -21 -4 -20 5 -20 6 3 18 30 17 61 18 55 3z m-932 -28 c-3 -5 -12 -10 -18
-10 -7 0 -6 4 3 10 19 12 23 12 15 0z m838 -4 c4 -10 1 -13 -8 -9 -8 3 -12 9
-9 14 7 12 11 11 17 -5z m405 -26 c7 -12 8 -20 2 -20 -5 0 -10 6 -10 13 0 8
-3 7 -10 -3 -7 -12 -9 -10 -7 8 2 27 8 28 25 2z m-318 -10 c0 -3 10 -6 23 -7
82 -8 117 -9 117 -3 0 4 6 7 14 7 9 0 12 -6 8 -16 -5 -14 -3 -14 10 -3 14 11
17 10 23 -8 4 -12 13 -19 20 -16 16 6 55 -34 55 -57 0 -9 4 -17 9 -17 6 0 10
-8 10 -17 3 -50 7 -62 23 -66 10 -3 16 -1 12 4 -13 22 15 6 46 -26 18 -19 37
-32 42 -29 13 8 9 -10 -7 -32 -14 -18 -14 -18 -8 4 3 13 1 22 -6 22 -9 0 -16
-28 -12 -52 0 -5 -3 -8 -9 -8 -5 0 -10 -7 -10 -16 0 -9 5 -12 13 -8 16 10 -5
-16 -67 -83 -27 -29 -55 -53 -63 -53 -8 0 -11 -4 -8 -10 3 -5 1 -10 -5 -10 -6
0 -9 -4 -6 -9 6 -10 -21 -24 -33 -17 -4 3 -8 -7 -9 -21 -2 -26 -2 -26 18 -8
21 19 27 11 11 -14 -6 -9 -26 -15 -50 -15 -35 -1 -38 -3 -25 -17 20 -23 6 -31
-22 -12 -22 14 -24 14 -24 -1 0 -9 -4 -16 -9 -16 -5 0 -9 14 -9 30 1 27 9 35
31 31 5 -1 5 3 2 9 -4 6 -13 9 -21 6 -8 -3 -13 -2 -13 2 1 4 0 10 -1 15 -1 4
-3 13 -4 20 0 6 -8 12 -16 12 -9 0 -14 -7 -12 -19 3 -18 2 -18 -13 -2 -21 21
-35 21 -35 -1 0 -15 -2 -14 -16 3 -15 18 -15 18 -9 -4 5 -16 1 -28 -12 -37
-10 -8 -13 -15 -6 -15 6 0 15 5 18 10 5 8 11 7 21 -1 7 -6 21 -9 29 -5 8 3 15
1 15 -5 0 -6 5 -7 12 -3 7 5 9 2 5 -8 -3 -9 -1 -20 4 -25 6 -6 -1 -9 -21 -8
-35 2 -28 -11 10 -18 14 -2 -2 -2 -35 1 -67 5 -154 30 -238 67 -64 28 -78 43
-41 43 14 0 21 -4 15 -8 -7 -4 -2 -11 14 -18 27 -12 50 -8 40 8 -5 8 15 18 40
21 6 0 18 5 28 11 17 9 17 11 4 26 -9 9 -17 22 -18 27 -2 6 -9 9 -15 7 -7 -1
-20 8 -29 20 -11 14 -15 16 -12 6 4 -12 2 -15 -8 -11 -8 3 -13 9 -10 13 3 5
-3 11 -14 15 -10 3 -31 17 -47 31 -16 15 -22 23 -14 19 8 -3 6 0 -4 9 -10 8
-22 13 -27 11 -4 -3 -10 -1 -13 4 -4 5 -2 12 3 15 5 4 12 2 16 -4 10 -16 25
-12 19 5 -4 10 0 13 15 10 13 -2 19 0 15 6 -3 5 -1 16 6 24 13 15 3 85 -12 85
-5 0 -7 4 -3 9 3 5 1 12 -5 16 -6 4 -3 16 8 33 9 14 12 23 5 19 -7 -5 -9 0 -6
13 3 11 10 20 15 20 5 0 6 5 3 10 -3 6 -4 10 -1 10 2 0 13 3 23 6 15 5 15 4 3
-5 -9 -7 -10 -11 -3 -11 19 0 25 18 8 28 -13 7 -12 10 9 20 22 10 26 8 32 -10
5 -16 8 -17 14 -7 5 7 6 17 4 21 -3 4 -1 8 4 8 6 0 13 -7 16 -17 6 -14 8 -14
20 3 8 10 18 16 22 11 4 -4 15 0 24 8 9 8 25 12 39 8 17 -4 19 -8 9 -14 -9 -6
-9 -9 -1 -9 19 0 27 21 12 31 -10 6 -7 8 9 6 12 0 22 -4 22 -7z m486 -46 c-4
-9 -9 -15 -11 -12 -3 3 -3 13 1 22 4 9 9 15 11 12 3 -3 3 -13 -1 -22z m-116
-4 c-6 -11 -13 -20 -15 -20 -3 0 -5 9 -5 20 0 11 7 20 15 20 13 0 14 -4 5 -20z
m83 4 c-7 -3 -9 -12 -6 -20 4 -10 0 -12 -11 -8 -27 10 -14 32 19 32 6 0 5 -2
-2 -4z m-23 -44 c0 -5 -2 -10 -4 -10 -3 0 -8 5 -11 10 -3 6 -1 10 4 10 6 0 11
-4 11 -10z m54 -29 c-2 -3 -12 3 -22 13 -16 17 -16 18 5 5 12 -7 20 -15 17
-18z m-34 5 c0 -3 -4 -8 -10 -11 -5 -3 -10 -1 -10 4 0 6 5 11 10 11 6 0 10 -2
10 -4z m-1003 -228 c-3 -7 -5 -2 -5 12 0 14 2 19 5 13 2 -7 2 -19 0 -25z m185
2 l22 -20 -25 0 c-21 -1 -22 -2 -6 -11 9 -5 22 -7 27 -4 6 3 10 -1 10 -9 0 -9
7 -16 16 -16 23 0 44 -25 44 -52 0 -17 3 -19 9 -9 12 19 33 4 26 -18 -3 -11 2
-24 12 -32 11 -9 14 -10 9 -1 -4 6 -2 12 3 12 13 0 13 -3 5 -24 -10 -27 -77
11 -87 50 -4 16 -5 16 -6 -3 -1 -15 -7 -23 -18 -23 -15 0 -14 -2 3 -15 12 -9
14 -14 6 -15 -16 0 -149 125 -164 155 -9 17 -8 17 11 -2 12 -13 27 -23 34 -23
7 0 23 -3 37 -6 22 -5 23 -4 7 6 -9 6 -15 15 -12 20 3 4 -2 11 -10 14 -13 4
-14 10 -5 26 13 25 25 25 52 0z m218 -155 c7 -8 8 -15 2 -15 -5 0 -15 7 -22
15 -7 8 -8 15 -2 15 5 0 15 -7 22 -15z m170 -50 c0 -8 -7 -15 -16 -15 -14 0
-14 3 -4 15 7 8 14 15 16 15 2 0 4 -7 4 -15z m234 -18 c-3 -9 -11 -17 -16 -17
-6 0 -5 6 2 15 6 8 8 20 4 27 -5 10 -4 10 5 2 6 -6 9 -18 5 -27z m-3343 -5
c-7 -2 -18 1 -23 6 -8 8 -4 9 13 5 13 -4 18 -8 10 -11z m3247 -79 c-10 -2 -26
-2 -35 0 -10 3 -2 5 17 5 19 0 27 -2 18 -5z m35 -30 c-7 -2 -19 -2 -25 0 -7 3
-2 5 12 5 14 0 19 -2 13 -5z m-3048 -41 c-3 -3 -11 0 -18 7 -9 10 -8 11 6 5
10 -3 15 -9 12 -12z m2048 -127 c1 -6 -11 -11 -28 -13 -29 -2 -29 -2 -10 13
20 16 35 16 38 0z m-1669 -90 c20 -8 36 -18 36 -20 0 -5 -70 22 -79 30 -8 9 6
5 43 -10z m153 -61 c-3 -3 -12 -4 -19 -1 -8 3 -5 6 6 6 11 1 17 -2 13 -5z
m103 -33 c78 -22 156 -42 181 -46 14 -2 48 -9 75 -16 66 -15 115 -22 294 -43
19 -2 -5 -2 -55 0 -109 5 -268 28 -344 50 -105 31 -236 74 -211 70 14 -3 41
-9 60 -15z m1437 -43 c-3 -7 -5 -2 -5 12 0 14 2 19 5 13 2 -7 2 -19 0 -25z
m-730 -64 c-3 -3 -12 -4 -19 -1 -8 3 -5 6 6 6 11 1 17 -2 13 -5z m266 -29 c-3
-9 -8 -14 -10 -11 -3 3 -2 9 2 15 9 16 15 13 8 -4z"/>
<path d="M3970 981 c0 -6 4 -13 10 -16 6 -3 7 1 4 9 -7 18 -14 21 -14 7z"/>
<path d="M4161 827 c-12 -12 -15 -37 -3 -38 4 0 16 -2 28 -3 13 -2 24 6 32 22
6 14 9 22 6 19 -3 -3 -16 -2 -29 3 -14 5 -26 5 -34 -3z m19 -17 c0 -5 -2 -10
-4 -10 -3 0 -8 5 -11 10 -3 6 -1 10 4 10 6 0 11 -4 11 -10z"/>
<path d="M4455 820 c3 -5 8 -10 11 -10 2 0 4 5 4 10 0 6 -5 10 -11 10 -5 0 -7
-4 -4 -10z"/>
<path d="M4387 798 c2 -5 10 -8 18 -8 8 0 16 3 18 8 3 4 -5 7 -18 7 -13 0 -21
-3 -18 -7z"/>
<path d="M4080 776 c0 -2 9 -6 20 -9 11 -3 18 -1 14 4 -5 9 -34 13 -34 5z"/>
<path d="M2580 1790 c0 -6 7 -10 15 -10 8 0 15 2 15 4 0 2 -7 6 -15 10 -8 3
-15 1 -15 -4z"/>
<path d="M2620 1782 c0 -5 10 -17 22 -28 19 -17 21 -17 15 -1 -4 9 -2 17 4 17
6 0 7 5 4 10 -7 12 -45 13 -45 2z"/>
<path d="M2940 1770 c-8 -5 -11 -12 -8 -16 10 -9 38 3 38 16 0 12 -10 13 -30
0z"/>
<path d="M3127 1759 c8 -8 16 -8 30 0 16 9 14 10 -11 11 -22 0 -27 -3 -19 -11z"/>
<path d="M3680 1725 c0 -9 5 -15 11 -13 6 2 11 8 11 13 0 5 -5 11 -11 13 -6 2
-11 -4 -11 -13z"/>
<path d="M3750 1730 c0 -5 5 -10 11 -10 5 0 7 5 4 10 -3 6 -8 10 -11 10 -2 0
-4 -4 -4 -10z"/>
<path d="M3180 1710 c-13 -8 -12 -10 3 -10 9 0 17 5 17 10 0 12 -1 12 -20 0z"/>
<path d="M3433 1705 c-10 -18 -15 -19 -58 -7 -27 7 -53 9 -61 4 -23 -13 93
-54 117 -41 10 5 30 9 46 10 l28 1 -27 9 c-15 6 -28 18 -30 27 -3 15 -5 15
-15 -3z"/>
<path d="M2695 1696 c-17 -13 -18 -15 -3 -16 9 0 21 -7 26 -16 8 -15 12 -15
41 1 18 9 31 21 28 28 -6 18 -69 20 -92 3z m65 -6 c0 -5 -8 -10 -17 -10 -15 0
-16 2 -3 10 19 12 20 12 20 0z"/>
<path d="M2853 1703 c-21 -8 -15 -22 7 -16 11 3 20 9 20 14 0 10 -8 10 -27 2z"/>
<path d="M3046 1688 c7 -11 41 -10 49 1 3 5 -8 9 -24 9 -17 -1 -28 -5 -25 -10z"/>
<path d="M3210 1691 c0 -5 -10 -12 -22 -14 -16 -4 -14 -5 6 -4 27 2 52 27 27
27 -6 0 -11 -4 -11 -9z"/>
<path d="M2435 1680 c-3 -5 -1 -10 4 -10 6 0 11 5 11 10 0 6 -2 10 -4 10 -3 0
-8 -4 -11 -10z"/>
<path d="M3537 1683 c-4 -3 -7 -11 -7 -17 0 -6 5 -5 12 2 6 6 9 14 7 17 -3 3
-9 2 -12 -2z"/>
<path d="M3750 1669 c0 -12 5 -19 12 -17 18 6 20 25 3 31 -10 5 -15 0 -15 -14z"/>
<path d="M2370 1670 c-9 -6 -10 -10 -3 -10 6 0 15 5 18 10 8 12 4 12 -15 0z"/>
<path d="M2925 1650 c3 -5 12 -7 20 -3 21 7 19 13 -6 13 -11 0 -18 -4 -14 -10z"/>
<path d="M2420 1620 c8 -5 20 -10 25 -10 6 0 3 5 -5 10 -8 5 -19 10 -25 10 -5
0 -3 -5 5 -10z"/>
<path d="M738 1578 c6 -6 18 -8 28 -6 14 3 12 5 -9 10 -19 3 -25 2 -19 -4z"/>
<path d="M1580 1581 c-8 -6 -18 -7 -24 -4 -5 3 -6 1 -2 -5 3 -6 -2 -16 -13
-22 -26 -13 -49 -52 -26 -44 8 4 15 9 15 13 0 3 15 15 33 24 19 10 34 25 34
33 0 8 -1 14 -1 14 -1 0 -8 -4 -16 -9z"/>
<path d="M707 1523 c9 -7 20 -13 23 -13 3 0 5 -14 4 -30 -3 -39 12 -48 19 -12
3 15 8 37 12 48 6 20 3 21 -35 20 -35 -1 -39 -2 -23 -13z"/>
<path d="M630 1526 c0 -2 7 -6 15 -10 8 -3 15 -1 15 4 0 6 -7 10 -15 10 -8 0
-15 -2 -15 -4z"/>
<path d="M1251 1472 c-7 -2 -22 -13 -32 -23 -18 -18 -17 -18 14 -12 39 7 40 8
35 26 -1 8 -9 12 -17 9z"/>
<path d="M705 1440 c3 -5 11 -10 16 -10 6 0 7 5 4 10 -3 6 -11 10 -16 10 -6 0
-7 -4 -4 -10z"/>
<path d="M1227 1417 c-35 -8 -36 -10 -20 -23 10 -8 14 -14 8 -13 -28 4 -48 -2
-39 -11 13 -13 94 9 101 27 9 23 -9 31 -50 20z"/>
<path d="M1504 1420 c-11 -4 -28 -20 -38 -34 -13 -21 -14 -30 -5 -48 12 -22
12 -22 -14 -5 -34 22 -40 21 -26 -4 8 -17 8 -20 -1 -14 -8 5 -11 3 -8 -5 2 -7
14 -17 27 -21 16 -7 20 -6 15 4 -4 6 13 -7 39 -30 44 -40 77 -57 61 -31 -4 7
-3 8 4 4 6 -4 23 1 37 10 21 14 23 19 13 32 -11 13 -10 14 8 8 18 -5 30 3 64
44 23 27 39 51 36 51 -13 3 -22 6 -39 14 -29 12 -83 -19 -102 -59 -14 -30 -22
-35 -42 -31 -36 6 -39 13 -17 30 18 15 18 15 -8 9 -37 -8 -37 14 -2 55 14 17
24 31 22 30 -1 0 -12 -4 -24 -9z"/>
<path d="M5128 1361 c-43 -42 -68 -75 -68 -89 0 -12 4 -22 8 -22 12 0 52 44
52 58 0 7 7 12 15 12 8 0 15 7 15 15 0 8 5 15 11 15 5 0 7 5 4 10 -3 6 -2 10
4 10 5 0 22 11 37 25 15 14 22 25 15 25 -6 0 -14 -7 -17 -15 -4 -8 -10 -12
-16 -9 -5 3 -4 11 3 20 26 31 0 9 -63 -55z"/>
<path d="M1345 1360 c3 -5 8 -10 11 -10 2 0 4 5 4 10 0 6 -5 10 -11 10 -5 0
-7 -4 -4 -10z"/>
<path d="M1345 1330 c-3 -5 -1 -10 4 -10 6 0 11 5 11 10 0 6 -2 10 -4 10 -3 0
-8 -4 -11 -10z"/>
<path d="M1740 1320 c-9 -6 -10 -10 -3 -10 6 0 15 5 18 10 8 12 4 12 -15 0z"/>
<path d="M1310 1297 c-12 -25 -11 -29 7 -47 16 -15 22 -16 26 -6 3 8 2 17 -3
22 -5 5 -10 20 -12 34 l-4 25 -14 -28z"/>
<path d="M1360 1283 c0 -6 8 -17 18 -24 16 -13 16 -13 2 6 -8 11 -16 22 -17
24 -2 2 -3 0 -3 -6z"/>
<path d="M1470 1256 c0 -2 8 -10 18 -17 15 -13 16 -12 3 4 -13 16 -21 21 -21
13z"/>
<path d="M1421 1229 c-8 -20 -10 -21 -16 -7 -8 19 -35 13 -35 -8 0 -8 -11 -20
-25 -26 -29 -13 -34 -28 -7 -21 15 3 18 -1 17 -19 -1 -13 3 -30 10 -38 7 -8
16 -31 20 -50 4 -19 11 -39 15 -45 4 -5 4 -32 0 -60 -4 -27 -6 -52 -4 -54 2
-2 4 1 4 7 0 7 5 12 10 12 6 0 10 -6 10 -14 0 -10 16 -15 54 -18 52 -3 54 -2
39 15 -9 9 -23 17 -31 17 -10 0 -12 3 -4 13 8 9 6 19 -7 36 -12 16 -21 20 -25
12 -11 -18 -26 -13 -26 8 0 22 16 37 22 21 1 -5 3 14 4 42 0 29 -1 47 -4 40
-2 -6 -12 -12 -23 -12 -18 0 -18 1 -2 19 9 11 20 18 25 15 7 -5 12 13 11 43
-1 7 2 11 6 9 4 -3 13 4 20 16 7 11 8 17 2 13 -6 -3 -11 -1 -11 5 0 6 -9 20
-20 32 l-19 21 -10 -24z"/>
<path d="M1331 1124 c0 -11 3 -14 6 -6 3 7 2 16 -1 19 -3 4 -6 -2 -5 -13z"/>
<path d="M1340 961 c0 -11 4 -22 9 -25 4 -3 6 6 3 19 -5 30 -12 33 -12 6z"/>
<path d="M3640 950 c0 -5 5 -10 10 -10 6 0 10 5 10 10 0 6 -4 10 -10 10 -5 0
-10 -4 -10 -10z"/>
<path d="M3633 923 c13 -3 17 -11 14 -24 -5 -19 3 -25 16 -13 11 11 -13 44
-31 43 -15 -1 -15 -2 1 -6z"/>
<path d="M3575 910 c-3 -5 1 -10 10 -10 9 0 13 5 10 10 -3 6 -8 10 -10 10 -2
0 -7 -4 -10 -10z"/>
<path d="M3555 881 c-27 -12 -108 -109 -100 -121 4 -6 10 -8 15 -5 5 3 11 1
14 -3 3 -5 18 -8 33 -5 26 3 26 3 6 -6 -13 -6 -23 -17 -23 -26 0 -12 4 -14 19
-5 11 5 35 10 53 10 18 0 44 9 58 20 l25 20 -30 0 c-16 1 -49 1 -73 0 -37 0
-42 2 -34 15 5 9 20 22 33 29 13 7 23 18 22 24 -2 6 6 13 16 17 20 6 37 35 22
35 -5 0 -15 2 -23 4 -7 3 -22 1 -33 -3z m5 -61 c0 -5 -2 -10 -4 -10 -3 0 -8 5
-11 10 -3 6 -1 10 4 10 6 0 11 -4 11 -10z"/>
<path d="M1560 856 c0 -2 7 -7 16 -10 8 -3 12 -2 9 4 -6 10 -25 14 -25 6z"/>
<path d="M1802 767 c15 -14 23 -28 18 -33 -5 -5 -7 -20 -3 -32 4 -18 11 -22
32 -18 76 14 162 16 200 5 41 -12 50 -32 9 -21 -14 3 -19 1 -14 -6 3 -6 25
-10 47 -10 42 0 82 -21 44 -23 -11 -1 -24 0 -30 1 -33 7 -59 -1 -87 -29 -32
-31 -56 -39 -73 -22 -6 6 -23 12 -39 15 l-30 5 21 -20 c22 -22 92 -33 128 -19
41 16 143 22 165 10 18 -9 25 -8 41 5 20 19 97 37 104 25 6 -10 64 -23 92 -21
21 2 49 -30 36 -43 -3 -3 1 -6 10 -6 10 0 17 5 17 11 0 8 15 10 48 5 26 -4 54
-7 62 -7 8 1 45 1 83 0 89 0 87 18 -3 20 -107 2 -255 38 -295 71 -10 9 -35 13
-62 12 -27 -1 -50 4 -59 12 -17 18 -94 42 -157 51 -27 4 -46 9 -43 12 3 4 -20
20 -52 36 -48 25 -72 30 -147 34 l-90 4 27 -24z m35 -52 c0 -8 -4 -12 -9 -9
-5 3 -6 10 -3 15 9 13 12 11 12 -6z"/>
<path d="M3510 676 c0 -23 12 -24 50 -5 l35 18 -42 1 c-31 0 -43 -4 -43 -14z"/>
<path d="M3570 641 c0 -23 16 -36 25 -21 3 5 1 10 -5 10 -6 0 -9 4 -5 9 3 5 1
12 -5 16 -5 3 -10 -3 -10 -14z"/>
<path d="M3200 643 c-8 -3 -28 -11 -45 -18 -48 -21 -160 -46 -236 -52 -38 -3
-72 -9 -74 -13 -3 -4 23 -15 57 -25 71 -20 109 -16 201 19 34 13 81 30 105 37
35 10 42 17 40 33 -3 21 -22 29 -48 19z"/>
<path d="M3633 625 c-6 -16 -31 -60 -56 -97 -25 -38 -42 -68 -37 -68 14 0 111
161 108 179 -3 11 -7 6 -15 -14z"/>
<path d="M3557 588 c-4 -12 -4 -24 -2 -26 8 -8 36 28 30 38 -10 16 -22 11 -28
-12z"/>
<path d="M3515 570 c-3 -5 1 -10 10 -10 9 0 13 5 10 10 -3 6 -8 10 -10 10 -2
0 -7 -4 -10 -10z"/>
<path d="M2170 550 c-9 -6 -10 -10 -3 -10 6 0 15 5 18 10 8 12 4 12 -15 0z"/>
<path d="M3474 408 l-29 -31 32 22 c35 23 50 41 35 41 -4 0 -21 -14 -38 -32z"/>
<path d="M3409 353 c-13 -17 -13 -17 6 -3 11 8 22 16 24 17 2 2 0 3 -6 3 -6 0
-17 -8 -24 -17z"/>
<path d="M3308 143 c7 -3 16 -2 19 1 4 3 -2 6 -13 5 -11 0 -14 -3 -6 -6z"/>
</g>
</svg>
